<?xml version="1.0" standalone="no"?>
<!DOCTYPE svg PUBLIC "-//W3C//DTD SVG 20010904//EN"
 "http://www.w3.org/TR/2001/REC-SVG-20010904/DTD/svg10.dtd">
<svg version="1.0" xmlns="http://www.w3.org/2000/svg"
 width="240.000000pt" height="240.000000pt" viewBox="0 0 240.000000 240.000000"
 preserveAspectRatio="xMidYMid meet">
<metadata>
Created by potrace 1.10, written by Peter Selinger 2001-2011
</metadata>
<g transform="translate(0.000000,240.000000) scale(0.100000,-0.100000)"
fill="#000000" stroke="none">
<path d="M442 2380 c-7 -11 -22 -20 -34 -20 -28 0 -108 -29 -129 -47 -8 -7
-20 -13 -26 -13 -16 0 -148 -132 -175 -176 -91 -147 -102 -408 -22 -568 41
-84 171 -213 249 -247 77 -34 130 -51 180 -58 l40 -6 0 -55 0 -55 -45 -6
c-121 -15 -234 -75 -325 -171 -117 -125 -148 -206 -148 -398 0 -192 34 -282
153 -400 121 -121 210 -154 410 -153 188 0 271 33 395 158 101 101 157 211
167 330 3 29 5 30 61 33 l57 3 0 -38 c0 -102 61 -224 165 -328 84 -85 170
-136 250 -150 59 -11 263 -10 315 2 101 22 183 78 291 199 43 49 89 149 89
194 0 17 9 39 20 50 17 17 20 33 20 111 0 54 -4 88 -9 84 -13 -7 -31 27 -31
59 0 63 -67 181 -151 266 -52 52 -183 130 -219 130 -9 0 -21 5 -27 11 -6 6
-62 11 -144 11 -130 0 -136 -1 -210 -34 -42 -18 -91 -45 -110 -58 -73 -54
-179 -175 -191 -217 -4 -13 -11 -30 -16 -36 -5 -7 -17 -48 -27 -92 -10 -44
-19 -86 -21 -93 -3 -9 -20 -12 -56 -10 l-53 3 -6 55 c-9 82 -51 188 -92 232
-56 59 -70 37 179 287 l229 229 50 -44 c27 -24 53 -44 58 -44 5 0 23 -6 40
-14 92 -40 131 -48 225 -48 91 0 179 17 222 42 8 5 34 18 58 29 95 45 242 229
258 323 11 69 15 78 29 78 12 0 15 17 15 90 0 63 -3 89 -12 88 -13 -3 -26 33
-27 80 -2 49 -58 155 -118 221 -81 90 -203 161 -276 161 -15 0 -36 9 -47 20
-17 17 -33 20 -114 20 -85 0 -94 -2 -99 -20 -4 -14 -14 -20 -33 -20 -74 0
-191 -68 -279 -161 -101 -108 -145 -226 -145 -389 0 -101 16 -180 47 -225 7
-11 13 -27 13 -35 0 -9 18 -34 40 -55 22 -21 40 -45 40 -51 0 -7 -14 -25 -31
-41 -17 -15 -118 -115 -224 -221 l-193 -194 -26 17 c-14 10 -26 20 -26 24 0
20 -195 96 -265 103 -29 3 -30 5 -33 56 -2 36 1 53 10 56 7 2 49 12 93 22 110
25 177 64 267 154 123 123 167 226 168 393 0 176 -41 276 -165 402 -84 85
-184 145 -244 145 -29 0 -57 21 -44 33 3 4 -45 7 -108 7 -103 0 -115 -2 -127
-20z m213 -70 c48 -12 104 -34 135 -51 8 -5 25 -13 38 -19 70 -30 198 -205
217 -295 25 -121 28 -165 11 -208 -9 -23 -16 -52 -16 -62 -1 -30 -63 -146 -87
-162 -20 -13 -22 -11 -44 33 -28 54 -96 117 -156 141 -48 20 -52 31 -22 59 46
41 72 96 77 164 6 91 -15 128 -124 222 -30 26 -109 38 -174 26 -46 -8 -65 -18
-106 -56 -68 -63 -91 -105 -93 -170 -2 -63 28 -133 72 -170 39 -34 34 -54 -18
-75 -47 -20 -149 -121 -166 -164 -7 -20 -12 -22 -28 -14 -21 12 -91 145 -91
176 -1 11 -7 31 -15 45 -20 34 -18 102 4 185 33 119 75 194 150 263 51 47 122
92 144 92 8 0 20 7 27 15 7 8 25 15 40 15 15 0 43 7 61 15 37 17 88 15 164 -5z
m1255 0 c143 -38 252 -112 322 -216 40 -60 60 -108 82 -196 20 -81 20 -131 2
-166 -7 -15 -21 -52 -31 -82 -9 -30 -23 -62 -30 -70 -7 -8 -15 -24 -19 -35 -3
-11 -15 -26 -26 -33 -18 -11 -21 -10 -29 11 -17 44 -119 144 -166 164 -50 20
-57 40 -24 69 74 66 98 179 56 262 -29 58 -112 124 -176 138 -59 14 -144 2
-175 -23 -62 -51 -116 -118 -122 -150 -16 -86 15 -183 75 -237 31 -28 26 -39
-25 -60 -55 -22 -139 -102 -160 -151 -8 -19 -18 -35 -23 -35 -23 0 -101 137
-101 178 0 13 -7 37 -16 54 -29 56 -3 213 52 316 50 93 191 222 243 222 10 0
24 7 31 15 7 8 25 15 40 15 15 0 43 7 61 15 36 16 86 15 159 -5z m-1263 -241
c85 -53 114 -143 74 -222 -29 -56 -40 -67 -100 -93 -52 -24 -56 -24 -100 -9
-25 9 -58 26 -72 38 -33 28 -69 100 -69 137 0 44 38 108 83 141 51 37 131 41
184 8z m1271 -9 c44 -32 82 -99 82 -146 0 -61 -74 -149 -143 -169 -46 -14 -52
-13 -96 6 -58 27 -75 42 -101 91 -41 79 -18 160 63 219 33 24 50 29 97 29 47
0 64 -5 98 -30z m-1228 -415 c71 -37 121 -77 160 -130 22 -30 40 -60 40 -67 0
-13 -90 -78 -108 -78 -5 0 -23 -7 -38 -15 -16 -8 -36 -15 -44 -15 -8 0 -33 -7
-55 -15 -74 -26 -149 -16 -290 42 -63 25 -125 63 -125 75 0 5 21 37 47 73 49
69 100 109 173 138 58 22 188 18 240 -8z m1241 5 c69 -28 115 -62 169 -127 70
-83 70 -82 -59 -150 -35 -18 -72 -33 -83 -33 -11 0 -42 -7 -70 -17 -42 -13
-61 -14 -107 -5 -110 21 -143 30 -154 41 -6 6 -18 11 -26 11 -29 0 -111 64
-111 87 0 35 115 145 190 181 81 40 170 44 251 12z m-1253 -596 c93 -40 170
-80 205 -107 42 -32 127 -138 127 -159 0 -7 7 -22 15 -32 8 -11 15 -30 15 -42
0 -12 7 -35 15 -50 20 -38 19 -138 -1 -205 -37 -123 -58 -160 -134 -238 -80
-81 -151 -124 -264 -156 -63 -19 -179 -16 -199 4 -6 6 -20 11 -31 12 -12 0
-41 11 -66 24 -25 13 -55 29 -68 34 -45 21 -148 137 -180 203 -18 35 -32 71
-32 79 0 8 -7 32 -15 54 -22 62 -18 133 11 211 14 38 29 82 34 97 23 72 164
199 270 241 25 10 54 22 65 26 40 17 51 18 123 19 47 1 87 -5 110 -15z m1231
0 c112 -27 190 -69 257 -138 34 -35 68 -76 77 -92 73 -135 103 -272 75 -343
-8 -20 -23 -61 -33 -91 -9 -30 -23 -62 -30 -70 -7 -8 -15 -24 -19 -35 -3 -11
-14 -25 -25 -32 -17 -11 -22 -8 -40 23 -12 19 -21 38 -21 42 0 24 -112 110
-162 126 -26 8 -22 41 6 59 38 25 71 103 71 167 -1 68 -42 151 -92 181 -18 11
-33 24 -33 29 0 10 -84 32 -125 33 -16 0 -47 -5 -68 -11 -40 -11 -125 -74
-134 -101 -3 -9 -12 -23 -19 -31 -7 -9 -16 -45 -20 -82 -6 -58 -4 -73 16 -110
12 -24 35 -57 52 -75 35 -36 32 -58 -9 -66 -49 -11 -126 -78 -156 -137 -15
-30 -33 -55 -39 -55 -19 0 -65 74 -84 135 -9 30 -24 74 -32 98 -42 121 33 327
165 453 40 38 85 71 100 75 16 4 34 11 40 17 19 14 142 46 182 46 19 1 64 -6
100 -15z m20 -257 c46 -44 75 -109 66 -153 -25 -137 -170 -197 -282 -116 -75
53 -93 139 -48 217 43 72 94 97 180 88 38 -4 58 -13 84 -36z m11 -402 c7 -8
17 -15 22 -15 40 0 200 -173 184 -199 -10 -15 -95 -71 -109 -71 -7 0 -21 -7
-31 -15 -11 -8 -30 -15 -42 -15 -12 0 -38 -7 -57 -15 -48 -20 -130 -19 -192 1
-145 48 -224 94 -225 130 0 13 25 47 63 85 71 72 86 84 122 101 14 6 25 15 25
20 0 4 51 8 114 8 89 0 116 -3 126 -15z"/>
<path d="M860 782 c-8 -2 -95 -84 -193 -181 l-178 -176 -103 108 c-78 81 -109
107 -128 107 -23 0 -38 -16 -38 -39 0 -4 57 -64 126 -134 87 -88 132 -127 145
-125 26 4 409 386 409 408 0 22 -20 39 -40 32z"/>
</g>
</svg>
