<?xml version="1.0" standalone="no"?>
<!DOCTYPE svg PUBLIC "-//W3C//DTD SVG 20010904//EN"
 "http://www.w3.org/TR/2001/REC-SVG-20010904/DTD/svg10.dtd">
<svg version="1.0" xmlns="http://www.w3.org/2000/svg"
 width="80.000000pt" height="80.000000pt" viewBox="0 0 80.000000 80.000000"
 preserveAspectRatio="xMidYMid meet">
<metadata>
Created by potrace 1.10, written by Peter Selinger 2001-2011
</metadata>
<g transform="translate(0.000000,80.000000) scale(0.050000,-0.050000)"
fill="#602dfb" stroke="none">
<path d="M235 1572 c-325 -144 -299 -627 38 -717 117 -31 116 -79 -2 -111
-397 -106 -337 -695 75 -738 194 -20 414 144 414 308 0 33 12 46 40 46 28 0
40 -13 40 -46 0 -205 316 -377 526 -286 377 162 262 732 -148 732 -179 0 -378
-167 -378 -317 0 -30 -12 -43 -40 -43 -27 0 -40 13 -40 42 0 24 -20 78 -44
121 l-44 78 142 143 142 142 88 -43 c358 -173 707 227 488 558 -254 383 -875
1 -650 -400 l46 -82 -142 -143 -142 -142 -88 43 c-49 24 -104 43 -122 43 -65
0 -39 74 31 88 254 51 377 366 230 588 -92 139 -309 203 -460 136z m318 -75
c118 -71 182 -227 146 -357 -35 -127 -49 -135 -116 -64 -32 35 -69 64 -80 64
-12 0 -4 30 18 67 52 89 24 176 -71 221 -153 73 -297 -104 -199 -244 17 -24
22 -44 12 -44 -11 0 -48 -28 -83 -63 -71 -71 -84 -64 -119 63 -77 279 241 510
492 357z m824 7 c146 -67 220 -304 136 -432 l-35 -53 -60 60 c-34 34 -70 61
-81 61 -10 0 -5 20 12 44 98 140 -46 317 -199 244 -105 -49 -130 -164 -55
-251 25 -29 23 -35 -14 -47 -23 -7 -56 -35 -74 -62 -44 -66 -57 -61 -96 36
-113 282 178 532 466 400z m-917 -144 c72 -72 -2 -212 -98 -186 -131 34 -116
226 18 226 22 0 58 -18 80 -40z m840 0 c63 -63 31 -162 -62 -186 -48 -13 -138
63 -138 115 0 44 73 111 120 111 22 0 58 -18 80 -40z m-806 -279 c106 -65 119
-113 41 -154 -137 -71 -402 -16 -354 75 57 106 206 144 313 79z m857 -10 c90
-59 98 -105 24 -144 -137 -71 -402 -16 -354 75 58 109 218 143 330 69z m-839
-389 c44 -20 101 -62 125 -92 254 -324 -195 -731 -486 -439 -259 258 29 682
361 531z m871 -13 c120 -63 196 -240 156 -365 -39 -121 -56 -131 -116 -67 -29
31 -66 61 -83 67 -26 9 -25 16 5 50 70 78 37 204 -64 246 -138 57 -278 -90
-211 -221 36 -68 -94 -236 -133 -175 -181 280 146 620 446 465z m-70 -161 c51
-78 4 -158 -93 -158 -53 0 -75 12 -98 53 -41 73 11 157 98 157 42 0 69 -15 93
-52z m60 -300 c74 -69 75 -73 37 -100 -103 -76 -281 -75 -381 1 -38 30 -37 33
36 101 105 99 202 98 308 -2z"/>
<path d="M457 425 l-130 -124 -67 69 c-37 39 -75 70 -84 70 -39 0 -9 -58 70
-136 l85 -84 137 138 c178 179 168 239 -11 67z"/>
</g>
</svg>
