<svg width="247" height="88" viewBox="0 0 247 88" fill="none" xmlns="http://www.w3.org/2000/svg">
<path d="M2.71094 28.3438C18.7239 27.0039 30.0252 22.7421 37.4315 19.0524C44.9208 15.3212 50.3147 11.228 60.171 9.02745C71.0419 6.58234 78.145 7.67775 80.9544 8.29391C84.8495 9.1497 84.6074 9.73164 90.9793 11.7171C103.22 15.5314 105.545 13.8345 111.029 16.3628C120.123 20.5537 117.411 26.9134 126.922 33.9676C133.81 39.0779 145.214 43.1441 155.53 40.3249C165.245 37.6695 166.338 31.0017 176.558 30.0554C180.756 29.6666 184.248 30.5297 191.229 32.256C200.175 34.4566 206.183 37.1707 208.589 38.1243C215.717 40.9533 227.221 42.7333 245.999 37.1462" stroke="url(#paint0_linear_440_746)" stroke-miterlimit="10"/>
<path d="M2.60156 30.5004C18.0913 29.3439 29.6714 25.4855 37.75 21.6613C44.3127 18.512 49.3178 15.0595 56.2154 12.5924C57.7241 12.0545 59.3134 11.5337 61.025 11.0838C71.8103 8.25233 78.8865 8.71935 81.8402 9.00543C85.8012 9.38687 85.8012 9.82209 92.0461 11.7513C96.4472 13.1083 99.5819 13.8834 102.01 14.392C106.137 15.2551 108.203 15.3138 111.46 16.974C112.675 17.5884 113.816 18.3408 114.859 19.2162C119.683 23.2629 119.478 28.3927 127.481 33.8306C134.447 38.5644 145.775 42.144 155.915 39.3444C156.718 39.1221 157.51 38.8593 158.286 38.557C166.125 35.5031 167.886 30.1312 176.869 29.2876C177.816 29.1974 178.768 29.1704 179.718 29.2069C182.911 29.3194 186.212 30.1165 191.44 31.4075C200.1 33.5592 206.015 36.222 208.668 37.2758C210.611 38.0405 212.615 38.6409 214.658 39.0705C221.73 40.5767 231.725 40.7332 245.787 36.8895" stroke="url(#paint1_linear_440_746)" stroke-miterlimit="10"/>
<path d="M2.49609 32.8476C17.4602 31.8695 29.3312 28.4464 38.0724 24.4413C45.0141 21.2626 50.2515 17.6316 57.022 15.0398C58.5673 14.4457 60.1689 13.8442 61.8878 13.3282C72.5876 10.108 79.627 9.71926 82.7372 9.90508C86.7447 10.1496 87.0112 10.1031 93.1191 11.9736C97.3956 13.2867 100.518 14.1742 102.9 14.7978C106.912 15.8418 108.841 16.0521 111.888 17.7759C113.049 18.4398 114.14 19.2188 115.145 20.1012C119.805 24.121 120.035 28.9427 128.048 33.8916C135.092 38.2464 146.344 41.3394 156.308 38.5593C157.152 38.3148 157.932 38.0703 158.663 37.7769C166.749 34.6667 168.538 29.5442 177.192 28.73C178.131 28.6375 179.075 28.6073 180.018 28.6395C183.265 28.7349 186.561 29.51 191.662 30.7888C200.039 32.8818 205.856 35.5005 208.758 36.6301C210.686 37.3879 212.671 37.9897 214.695 38.4297C221.702 39.9702 231.652 40.2954 245.574 36.8331" stroke="url(#paint2_linear_440_746)" stroke-miterlimit="10"/>
<path d="M2.39453 35.3538C16.8329 34.564 28.9875 31.5443 38.3987 27.3925C45.7096 24.165 51.1867 20.3677 57.8251 17.6487C59.4096 16.9983 61.0258 16.3186 62.7471 15.7342C73.3613 12.1301 80.3519 11.3746 83.6308 10.9638C87.6872 10.4577 88.2178 10.5433 94.1912 12.3551C98.3479 13.6192 101.458 14.6217 103.805 15.3601C107.7 16.5827 109.498 16.9494 112.334 18.7344C113.432 19.4488 114.467 20.2545 115.429 21.1428C119.926 25.1332 120.606 29.6445 128.609 34.1019C135.741 38.0776 146.908 40.6866 156.696 37.9236C157.532 37.6791 158.307 37.4346 159.033 37.1485C167.361 33.9699 169.188 29.1065 177.506 28.2972C178.438 28.2025 179.376 28.169 180.313 28.197C183.614 28.2728 186.915 29.0307 191.881 30.2851C199.969 32.317 205.693 34.8892 208.842 36.1142C210.758 36.8605 212.727 37.4629 214.733 37.9163C221.677 39.4909 231.579 39.9873 245.36 36.904" stroke="url(#paint3_linear_440_746)" stroke-miterlimit="10"/>
<path d="M2.28516 37.8649C16.2003 37.2585 28.6336 34.6471 38.7173 30.3462C46.3998 27.0673 52.114 23.1013 58.6253 20.2601C60.2464 19.5535 61.8749 18.793 63.6036 18.1426C74.1322 14.162 81.0592 12.8074 84.5215 12.0298C88.6121 11.1105 89.4117 10.9907 95.2604 12.7438C99.307 13.9664 102.39 15.0765 104.698 15.9225C108.476 17.3211 110.139 17.8492 112.767 19.6928C113.8 20.4561 114.78 21.2877 115.701 22.1819C120.037 26.1381 121.166 30.3413 129.162 34.3219C136.382 37.9162 147.461 40.0435 157.075 37.3001C157.902 37.0556 158.672 36.811 159.396 36.5299C167.968 33.2852 169.826 28.7055 177.812 27.8864C178.738 27.7929 179.669 27.7562 180.6 27.7764C183.949 27.835 187.24 28.5735 192.092 29.8034C199.896 31.779 205.525 34.3072 208.921 35.6203C210.823 36.3593 212.775 36.9631 214.763 37.4272C221.646 39.0385 231.502 39.7012 245.143 37.0018" stroke="url(#paint4_linear_440_746)" stroke-miterlimit="10"/>
<path d="M2.17969 39.4837C15.5715 39.0607 28.2861 36.8601 39.0397 32.41C47.0914 29.0773 53.0453 24.9353 59.4294 21.9816C61.0848 21.2163 62.7303 20.3849 64.4639 19.6612C74.9021 15.304 81.7728 13.3626 85.4087 12.2012C89.5361 10.8857 90.6192 10.5409 96.3261 12.2378C99.4777 13.1783 102.571 14.3034 105.591 15.6072C109.258 17.1794 110.782 17.8738 113.195 19.7639C114.249 20.5928 115.085 21.4755 115.99 22.3337C120.163 26.2459 121.745 30.158 129.726 33.6497C137.042 36.8601 148.028 38.5081 157.466 35.7842C158.285 35.5397 159.05 35.2952 159.769 35.0189C168.589 31.7156 170.479 27.378 178.132 26.5833C179.051 26.4895 179.974 26.4503 180.898 26.4659C184.301 26.5124 187.587 27.2239 192.306 28.422C199.825 30.3341 205.361 32.8232 209.002 34.2243C210.892 34.9554 212.828 35.5599 214.799 36.0336C221.618 37.6816 231.426 38.5154 244.928 36.195" stroke="url(#paint5_linear_440_746)" stroke-miterlimit="10"/>
<path d="M2.07031 40.6377C14.9365 40.3932 27.9322 38.6009 39.3582 34.0066C47.7792 30.6201 53.9677 26.2971 60.2297 23.2481C61.9217 22.4216 63.5794 21.5169 65.3204 20.7247C75.6803 15.9983 82.4972 13.4725 86.3043 11.9223C90.461 10.223 91.8253 9.64103 97.4002 11.2793C100.524 12.1973 103.564 13.3802 106.486 14.8149C110.034 16.5558 111.428 17.4214 113.631 19.3775C114.609 20.2406 115.379 21.1599 116.276 22.028C120.291 25.9157 122.328 29.4904 130.289 32.5199C137.705 35.3416 148.596 36.5152 157.858 33.8085C158.667 33.564 159.425 33.3195 160.144 33.0481C169.211 29.6934 171.14 25.6052 178.451 24.8398C179.363 24.7436 180.279 24.7012 181.196 24.7127C184.649 24.742 187.935 25.4316 192.525 26.615C199.757 28.4708 205.198 30.9135 209.088 32.4075C210.965 33.1293 212.885 33.7344 214.836 34.2193C221.595 35.904 231.355 36.9089 244.718 34.965" stroke="url(#paint6_linear_440_746)" stroke-miterlimit="10"/>
<path d="M1.96484 41.8088C14.3053 41.7525 27.5774 40.3588 39.6806 35.6202C48.4684 32.1775 54.8892 27.6687 61.0289 24.5096C62.7576 23.6171 64.4325 22.6391 66.1783 21.7833C76.4551 16.6926 83.2231 13.5922 87.194 11.6361C91.4069 9.56265 93.028 8.7362 98.4684 10.3157C101.569 11.2242 104.559 12.4774 107.381 14.0519C110.804 15.9566 112.071 17.0031 114.066 19.0081C114.961 19.9079 115.67 20.8566 116.557 21.7417C120.416 25.5879 122.915 28.8448 130.851 31.4073C138.37 33.8353 149.158 34.537 158.237 31.8523C159.039 31.6078 159.792 31.3633 160.506 31.0943C169.819 27.6711 171.77 23.8397 178.758 23.0792C179.663 22.9829 180.572 22.9372 181.482 22.9423C184.989 22.9423 188.27 23.622 192.73 24.7859C199.679 26.5782 205.021 28.9817 209.161 30.5613C211.025 31.277 212.929 31.8844 214.863 32.3804C221.558 34.092 231.272 35.2681 244.493 33.7106" stroke="url(#paint7_linear_440_746)" stroke-miterlimit="10"/>
<path d="M1.85547 42.985C13.6727 43.1121 27.2235 42.1219 39.9992 37.239C49.1561 33.74 55.8092 29.043 61.8291 25.7885C63.5896 24.8374 65.284 23.7933 67.0323 22.8544C77.2284 17.3994 83.9524 13.7244 88.0846 11.3624C92.3489 8.91727 94.2292 7.84143 99.5375 9.36228C102.615 10.2603 105.555 11.5766 108.274 13.2745C111.592 15.3455 112.709 16.5729 114.497 18.6268C115.311 19.5657 115.964 20.5389 116.839 21.4411C120.541 25.2482 123.497 28.1799 131.41 30.2827C139.036 32.3096 149.718 32.5493 158.628 29.8817C159.423 29.6371 160.171 29.3926 160.88 29.131C170.443 25.6565 172.421 22.0695 179.079 21.3238C179.978 21.2273 180.88 21.1783 181.784 21.1771C185.341 21.1551 188.63 21.8201 192.955 22.9595C199.616 24.6931 204.865 27.0551 209.252 28.7227C211.102 29.4335 212.989 30.0448 214.905 30.5541C221.539 32.3096 231.207 33.6471 244.288 32.471" stroke="url(#paint8_linear_440_746)" stroke-miterlimit="10"/>
<path d="M1.74609 44.1561C13.04 44.4593 26.8745 43.87 40.3226 38.8453C49.8585 35.2877 56.7292 30.3999 62.6342 27.055C64.4289 26.0378 66.1405 24.9277 67.8936 23.9203C78.0066 18.1083 84.689 13.8612 88.9802 11.0811C93.3056 8.27652 95.4377 6.94149 100.612 8.40367C103.668 9.29853 106.558 10.6842 109.169 12.5066C112.373 14.7365 113.351 16.1547 114.93 18.255C115.664 19.2331 116.253 20.2282 117.131 21.15C120.681 24.9155 124.099 27.5073 131.982 29.1651C139.716 30.7862 150.291 30.5686 159.028 27.9205C159.813 27.676 160.556 27.4315 161.262 27.187C171.072 23.6587 173.08 20.3162 179.403 19.59C180.296 19.4884 181.194 19.4362 182.092 19.4336C185.701 19.4091 188.978 20.0375 193.186 21.1451C199.56 22.82 204.714 25.1405 209.35 26.896C211.025 27.5318 212.881 28.1602 214.957 28.7225C221.527 30.5124 231.149 32.021 244.088 31.2239" stroke="url(#paint9_linear_440_746)" stroke-miterlimit="10"/>
<path d="M1.64062 45.293C12.3991 45.782 26.5147 45.5962 40.6401 40.4321C50.533 36.8158 57.6409 31.7324 63.4334 28.2995C65.2599 27.2163 66.991 26.0426 68.7491 24.9619C78.7887 18.7929 85.4345 13.976 89.8674 10.7803C94.254 7.60162 96.6355 6.02208 101.677 7.42557C104.716 8.31814 107.56 9.77106 110.064 11.7094C113.157 14.1007 113.976 15.712 115.363 17.854C116.015 18.8711 116.546 19.8907 117.404 20.8297C120.803 24.5487 124.681 26.8153 132.532 28.0183C140.383 29.2213 150.844 28.5562 159.404 25.9277C160.181 25.6832 160.92 25.4387 161.622 25.1942C171.681 21.6121 173.718 18.5141 179.715 17.8051C180.599 17.7018 181.488 17.6471 182.378 17.6412C186.046 17.5948 189.312 18.2061 193.381 19.299C199.472 20.9128 204.528 23.1941 209.414 25.0353C211.081 25.6661 212.922 26.292 214.974 26.8666C221.48 28.6907 231.055 30.368 243.855 29.9548" stroke="url(#paint10_linear_440_746)" stroke-miterlimit="10"/>
<path d="M1.53516 46.4154C11.7777 47.0927 26.1598 47.3005 40.9625 41.9995C51.232 38.3319 58.5526 33.0407 64.2326 29.5295C66.0933 28.3778 67.844 27.1431 69.6119 25.989C79.5732 19.4605 86.1848 14.0813 90.7572 10.4552C95.2146 6.92933 97.848 5.07594 102.738 6.42319C105.985 7.3181 108.934 9.16905 110.951 10.888C113.937 13.4358 114.619 15.2452 115.79 17.4286C116.357 18.4849 116.832 19.529 117.678 20.4875C120.927 24.1551 125.258 26.0843 133.082 26.8448C141.036 27.6247 151.396 26.5196 159.78 23.9106C160.548 23.6661 161.281 23.4216 161.981 23.1771C172.287 19.5388 174.35 16.6853 180.011 15.9958C180.888 15.891 181.771 15.833 182.654 15.8222C186.368 15.7513 189.635 16.3479 193.589 17.4189C199.393 18.9739 204.347 21.2137 209.482 23.1429C211.142 23.7664 212.969 24.3948 214.993 24.9767C221.438 26.8374 230.967 28.6835 243.625 28.6444" stroke="url(#paint11_linear_440_746)" stroke-miterlimit="10"/>
<path d="M1.42969 47.5232C11.149 48.3863 25.7976 48.9609 41.2849 43.5499C51.9041 39.7942 59.4643 34.3318 65.0367 30.7351C66.9268 29.5125 68.7044 28.219 70.4673 26.9916C80.3602 20.1184 86.94 14.1572 91.6517 10.1203C96.1825 6.2375 99.0408 4.12493 103.819 5.41106C106.951 6.26195 109.885 8.21071 111.856 10.0568C114.734 12.7611 115.252 14.766 116.232 16.9935C116.721 18.089 117.135 19.1526 117.971 20.1306C121.071 23.7592 125.861 25.3338 133.656 25.6737C141.725 26.0233 151.973 24.4854 160.181 21.8935C160.942 21.6507 161.67 21.4062 162.364 21.16C172.922 17.4728 175.013 14.859 180.341 14.189C181.211 14.0814 182.085 14.0202 182.962 14.0056C186.727 13.9152 189.994 14.4946 193.821 15.5411C199.337 17.0351 204.2 19.2455 209.587 21.2529C211.24 21.874 213.049 22.4975 215.051 23.0892C221.433 24.9866 230.915 27.0014 243.434 27.3486" stroke="url(#paint12_linear_440_746)" stroke-miterlimit="10"/>
<path d="M1.32031 48.6135C10.5139 49.6576 25.4438 50.6356 41.6035 45.0828C52.5918 41.2709 60.3746 35.5982 65.8369 31.9305C67.7563 30.642 69.5535 29.2849 71.3238 27.9841C81.1458 20.7613 87.706 14.2279 92.54 9.76561C97.149 5.52335 100.242 3.14181 104.876 4.3717C107.895 5.17614 110.817 7.22514 112.737 9.20324C115.512 12.064 115.866 14.2695 116.649 16.5386C117.045 17.6755 117.414 18.7612 118.236 19.7563C121.206 23.336 126.454 24.803 134.217 24.473C142.379 24.1257 152.536 22.4215 160.57 19.8492C161.323 19.6064 162.045 19.3619 162.737 19.1157C173.549 15.3943 175.661 13.0029 180.657 12.3525C181.52 12.244 182.388 12.1804 183.258 12.1618C187.075 12.0542 190.349 12.6117 194.036 13.6289C199.257 15.0764 204.034 17.2599 209.668 19.3407C211.314 19.9568 213.108 20.5803 215.084 21.1818C221.404 23.1159 230.84 25.2994 243.217 26.028" stroke="url(#paint13_linear_440_746)" stroke-miterlimit="10"/>
<path d="M1.20312 49.6918C9.87348 50.9144 25.0821 52.3008 41.9142 46.6037C53.2717 42.7355 61.2623 36.855 66.6269 33.1042C68.583 31.7447 70.3997 30.3314 72.1699 28.9475C81.9259 21.3677 88.4495 14.2768 93.4228 9.38663C98.1199 4.78982 101.453 2.15399 105.956 3.32275C108.861 4.08074 111.771 6.22754 113.641 8.33767C116.314 11.35 116.497 13.756 117.096 16.0642C117.404 17.2428 117.725 18.348 118.534 19.3651C121.346 22.8959 127.028 23.7663 134.777 23.2577C143.046 22.7223 153.096 20.3432 160.954 17.7905C161.688 17.546 162.421 17.3014 163.104 17.0569C174.163 13.2792 176.307 11.13 180.97 10.5016C181.826 10.3901 182.687 10.3232 183.55 10.3011C187.418 10.174 190.679 10.7143 194.249 11.7119C199.196 13.0885 203.868 15.2182 209.749 17.3993C211.389 18.0105 213.172 18.6218 215.128 19.2453C221.385 21.2014 230.777 23.5658 243.002 24.6759" stroke="url(#paint14_linear_440_746)" stroke-miterlimit="10"/>
<path d="M1.10938 50.758C9.25403 52.1689 24.7389 53.9538 42.2483 48.1149C53.9848 44.1905 62.1759 38.0899 67.4329 34.2731C69.4086 32.8403 71.262 31.3732 73.0322 29.9208C82.7369 22.0182 89.2188 14.321 94.3047 9.01021C99.0775 4.04419 102.63 1.15407 107.019 2.26904C109.809 2.98057 112.711 5.22518 114.531 7.4649C117.103 10.6435 117.11 13.2354 117.526 15.5876C117.739 16.8101 118.015 17.9324 118.81 18.9691C121.48 22.451 127.612 22.9498 135.331 22.0378C143.701 21.0597 153.655 18.2601 161.335 15.7245C162.068 15.48 162.785 15.2355 163.467 15.0105C174.776 11.1766 176.944 9.26206 181.277 8.65322C182.132 8.54335 182.992 8.47806 183.854 8.45762C187.441 8.32253 191.026 8.77683 194.466 9.80243C199.126 11.1203 203.704 13.2085 209.834 15.4775C211.467 16.0815 213.232 16.7001 215.157 17.326C224.153 20.2048 233.403 22.2197 242.781 23.3434" stroke="url(#paint15_linear_440_746)" stroke-miterlimit="10"/>
<path d="M1 51.8166C8.6214 53.4108 24.385 55.5992 42.5668 49.616C54.6628 45.6354 63.0715 39.3294 68.2405 35.4344C91.1829 18.1303 98.4449 -1.19584 108.096 1.20282C110.771 1.86789 113.666 4.2103 115.431 6.58206C119.201 11.6434 116.825 15.4823 119.099 18.5631C124.674 26.1185 149.751 17.6804 163.844 12.9393C177.586 8.31564 178.094 6.82657 184.139 6.58206C194.689 6.14927 200.174 10.3866 215.191 15.3845C224.121 18.3417 233.281 20.55 242.577 21.9863" stroke="url(#paint16_linear_440_746)" stroke-miterlimit="10"/>
<path d="M1 52.5161C8.82435 54.2594 24.0989 56.2571 41.4812 50.5306C53.4794 46.5671 61.5311 40.2001 67.079 36.1045C89.2415 19.7638 96.1538 2.06611 105.986 3.64566C109.827 4.26182 113.727 5.4966 116.302 7.38912C121.36 11.1106 119.48 14.4384 122.414 17.4141C128.838 23.9327 152.227 16.6145 165.646 12.2647C178.718 8.01262 179.246 6.80963 185.635 7.05414C196.252 7.46003 201.487 11.2108 215.634 16.0081C224.461 18.9996 233.549 21.1534 242.78 22.4412" stroke="url(#paint17_linear_440_746)" stroke-miterlimit="10"/>
<path d="M1 53.2445C14.0486 56.2483 27.6695 55.6353 40.3956 51.4718C52.2959 47.5278 59.976 41.0947 65.9176 36.8011C87.2707 21.3822 93.9557 5.04889 103.878 6.11496C108.912 6.65777 113.646 6.7947 117.172 8.22509C123.221 10.6702 122.043 13.3843 125.73 16.294C132.774 21.8468 154.704 15.5751 167.451 11.6165C179.83 7.73607 180.38 6.7947 187.134 7.55268C197.79 8.7459 202.8 12.0859 216.077 16.6607C224.798 19.6843 233.813 21.7839 242.973 22.9251" stroke="url(#paint18_linear_440_746)" stroke-miterlimit="10"/>
<path d="M1 54.5404C13.6687 57.5803 26.9328 57.0402 39.3124 52.9805C51.1125 49.0536 58.4234 42.5545 64.7562 38.0653C85.256 23.5364 91.8284 10.2937 101.768 9.15185C107.986 8.43788 113.485 8.73129 118.045 9.6262C124.935 10.9759 124.534 12.9002 129.048 15.739C136.52 20.4385 157.186 15.1277 169.253 11.5358C180.96 8.05155 181.505 7.32536 188.63 8.61637C199.32 10.5529 204.11 13.5237 216.522 17.8785C225.139 20.9377 234.083 22.9842 243.173 23.9766" stroke="url(#paint19_linear_440_746)" stroke-miterlimit="10"/>
<path d="M1 56.5139C13.2877 59.5881 26.195 59.1185 38.2268 55.1593C49.9291 51.2472 56.8683 44.682 63.5948 39.9996C83.2265 26.3339 89.7305 14.3553 99.6601 12.8589C107.037 11.7488 113.551 10.0519 118.915 11.6975C126.297 13.9617 126.573 14.1182 132.363 15.8542C139.33 21.1381 159.665 15.3432 171.057 12.1254C182.085 9.0201 182.627 8.50663 190.129 10.3527C200.846 12.991 205.418 15.6415 216.964 19.7664C225.478 22.8603 234.352 24.8529 243.371 25.6958" stroke="url(#paint20_linear_440_746)" stroke-miterlimit="10"/>
<path d="M1 58.5335C12.9062 61.6441 25.4573 61.2519 37.146 57.4039C48.7505 53.5113 55.3156 46.8728 62.4382 41.9997C81.1824 29.1726 87.6131 18.3481 97.5402 16.6317C106.098 15.1548 113.218 12.8124 119.791 13.8369C128.265 15.1573 129.016 14.6389 135.684 16.0375C142.992 20.7395 162.142 15.6047 172.85 12.7806C183.197 10.0543 183.74 9.72913 191.616 12.1547C202.374 15.4605 206.714 17.8298 217.397 21.72C225.807 24.8489 234.613 26.7878 243.56 27.4806" stroke="url(#paint21_linear_440_746)" stroke-miterlimit="10"/>
<path d="M1 60.5921C12.522 63.7329 24.7135 63.414 36.0555 59.6752C47.5622 55.7997 53.7483 49.0879 61.2719 44.0265C79.1212 32.0186 85.4785 22.2895 95.4423 20.4312C105.157 18.6194 113.013 17.1327 120.656 16.0006C130.094 14.602 131.449 15.1815 138.995 16.2452C146.658 20.3798 164.619 15.9028 174.664 13.4626C184.332 11.1153 184.875 10.9637 193.124 13.9834C203.902 17.9298 208.027 20.0546 217.84 23.7027C226.147 26.8654 234.885 28.7508 243.758 29.2947" stroke="url(#paint22_linear_440_746)" stroke-miterlimit="10"/>
<path d="M1 62.6777C10.1031 65.3111 22.3947 66.1986 34.9723 61.9759C46.3885 58.142 52.1859 51.3275 60.1105 46.0827C77.0477 34.8743 83.339 26.204 93.3322 24.2601C104.228 22.1426 112.893 20.0716 121.529 18.1938C131.872 15.9418 134.121 14.3696 142.313 16.4822C150.8 18.6706 167.096 16.2377 176.466 14.174C185.454 12.2033 186.002 12.2179 194.621 15.8391C205.453 20.4042 209.331 22.3138 218.294 25.7125C223.867 27.8251 232.273 30.588 243.968 31.1357" stroke="url(#paint23_linear_440_746)" stroke-miterlimit="10"/>
<path d="M1 64.8004C10.3159 67.578 22.1086 68.2798 33.8867 64.3114C45.2051 60.497 50.6186 53.5944 58.9491 48.1736C74.9621 37.7501 81.1629 30.1141 91.2245 28.1237C103.303 25.7324 112.795 23.0599 122.4 20.4216C133.674 17.3237 136.488 14.9666 145.628 16.754C154.34 18.4656 169.571 16.5877 178.27 14.9201C186.584 13.3259 187.151 13.4726 196.12 17.732C207.005 22.8985 210.629 24.6174 218.737 27.757C224.229 29.8842 232.51 32.6472 244.166 33.014" stroke="url(#paint24_linear_440_746)" stroke-miterlimit="10"/>
<path d="M1 66.9471C10.5359 69.8812 21.8225 70.3849 32.8011 66.6733C44.0217 62.8784 49.0464 55.8854 57.7876 50.291C72.8691 40.6377 78.9867 34.0261 89.1144 32.0138C102.389 29.3755 112.71 26.082 123.27 22.6759C135.496 18.7344 138.858 15.6462 148.944 17.0522C157.893 18.2992 172.045 16.9764 180.072 15.6927C187.696 14.4701 188.3 14.7513 197.616 19.6513C208.57 25.4096 211.925 26.9549 219.179 29.8279C224.593 31.9722 232.745 34.745 244.364 34.9162" stroke="url(#paint25_linear_440_746)" stroke-miterlimit="10"/>
<path d="M1 69.1256C10.7389 72.1991 21.5389 72.5195 31.7154 69.0645C42.8382 65.2868 47.4693 58.196 56.6262 52.4378C70.7663 43.5425 76.6345 36.7622 87.0067 35.9333C101.712 34.7572 112.631 29.1359 124.141 24.9596C137.327 20.177 141.745 13.9566 152.259 17.3798C161.042 20.2479 174.51 17.3798 181.877 16.4946C188.816 15.6511 189.457 16.0496 199.115 21.5976C210.145 27.9378 213.216 29.3315 219.622 31.9282C224.955 34.0921 232.982 36.8673 244.562 36.8502" stroke="url(#paint26_linear_440_746)" stroke-miterlimit="10"/>
<path d="M1 71.3751C10.9516 74.5977 21.2528 74.72 30.6323 71.5413C41.6548 67.7808 45.8873 60.5824 55.4648 54.6701C68.6684 46.5205 74.4559 40.9359 84.8965 39.9383C100.79 38.415 112.563 32.2778 125.013 27.3289C139.171 21.7051 143.931 15.0764 155.577 17.7929C164.815 19.9495 176.992 17.8858 183.679 17.3821C189.936 16.9102 190.633 17.4237 200.611 23.6318C211.729 30.5466 214.507 31.801 220.067 34.114C225.317 36.3 233.219 39.0727 244.763 38.8673" stroke="url(#paint27_linear_440_746)" stroke-miterlimit="10"/>
<path d="M1 73.7664C11.1619 77.1382 20.9643 77.0722 29.5466 74.1331C40.4714 70.3897 44.298 63.0739 54.3034 57.0174C66.5436 49.6062 72.2749 45.2246 82.7889 44.0583C99.8753 42.1633 112.499 35.5371 125.884 29.8155C141.024 23.3433 146.178 16.4456 158.893 18.3235C168.561 19.7514 179.461 18.4946 185.483 18.3846C191.053 18.2819 191.814 18.9079 202.11 25.7811C213.321 33.2656 215.803 34.3952 220.51 36.4173C225.676 38.6326 233.469 41.3955 244.961 41.0019" stroke="url(#paint28_linear_440_746)" stroke-miterlimit="10"/>
<path d="M1 76.1994C11.3746 79.7204 20.6782 79.4612 28.461 76.7813C39.2879 73.0526 42.7013 65.6047 53.1419 59.4211C64.4261 52.7361 70.0865 49.5648 80.6787 48.2347C98.9486 45.9412 112.441 38.8504 126.754 32.3561C142.892 25.0379 148.482 17.9716 162.208 18.908C172.282 19.5951 181.933 19.1525 187.285 19.4435C192.166 19.7051 193.002 20.4387 203.607 27.9867C214.925 36.0385 217.074 37.0654 220.952 38.777C226.031 41.0289 233.691 43.7772 245.159 43.1929" stroke="url(#paint29_linear_440_746)" stroke-miterlimit="10"/>
<path d="M1 78.8473C11.5873 82.515 20.3848 82.0504 27.3754 79.642C38.0972 75.9059 41.0924 68.3285 51.9805 62.0372C62.3037 56.0711 67.8957 54.115 78.571 52.6235C98.0145 49.907 112.387 42.3785 127.615 35.1092C144.731 26.945 150.89 20.82 165.514 19.705C175.935 18.9128 184.393 20.0229 189.08 20.7148C193.278 21.3359 194.19 22.1819 205.096 30.4024C216.524 39.0238 218.343 39.9383 221.385 41.3442C226.368 43.65 233.919 46.3665 245.347 45.5938" stroke="url(#paint30_linear_440_746)" stroke-miterlimit="10"/>
<path d="M1 81.4686C11.7976 85.2854 20.0987 84.6301 26.2922 82.4784C36.9137 78.7594 39.4689 71.0011 50.8191 64.6291C60.1789 59.3746 65.7 58.6386 76.4609 56.9881C97.0756 53.8266 112.336 45.88 128.498 37.8405C146.614 28.8254 153.352 22.1918 168.842 20.4802C179.6 19.2968 186.88 20.8543 190.892 21.9619C194.41 22.94 195.406 23.8936 206.602 32.7962C218.152 41.9801 219.624 42.8041 221.84 43.8921C226.71 46.2834 234.165 48.9315 245.557 47.9706" stroke="url(#paint31_linear_440_746)" stroke-miterlimit="10"/>
<path d="M1 84.0922C12.003 88.0557 19.8273 87.2122 25.2066 85.3148C35.7205 81.6129 37.8282 73.6345 49.6576 67.221C58.0541 62.6682 63.5018 63.1621 74.3532 61.3527C96.1269 57.7217 112.287 49.3717 129.368 40.5693C148.484 30.7057 155.822 23.5537 172.158 21.2529C183.295 19.6856 189.364 21.6734 192.696 23.209C195.54 24.5196 196.609 25.6027 208.101 35.19C219.776 44.9387 220.889 45.6795 222.282 46.4375C226.994 49.0024 234.4 51.4989 245.755 50.3497" stroke="url(#paint32_linear_440_746)" stroke-miterlimit="10"/>
<defs>
<linearGradient id="paint0_linear_440_746" x1="51.8072" y1="46.8945" x2="51.1056" y2="14.2976" gradientUnits="userSpaceOnUse">
<stop stop-color="#B6C1FF"/>
<stop offset="1" stop-color="#AF8AFF" stop-opacity="0.9"/>
</linearGradient>
<linearGradient id="paint1_linear_440_746" x1="51.6771" y1="45.6083" x2="51.0636" y2="15.1325" gradientUnits="userSpaceOnUse">
<stop stop-color="#B6C1FF"/>
<stop offset="1" stop-color="#AF8AFF" stop-opacity="0.9"/>
</linearGradient>
<linearGradient id="paint2_linear_440_746" x1="51.55" y1="44.5964" x2="51.0039" y2="15.85" gradientUnits="userSpaceOnUse">
<stop stop-color="#B6C1FF"/>
<stop offset="1" stop-color="#AF8AFF" stop-opacity="0.9"/>
</linearGradient>
<linearGradient id="paint3_linear_440_746" x1="51.4257" y1="43.9255" x2="50.9256" y2="16.4207" gradientUnits="userSpaceOnUse">
<stop stop-color="#B6C1FF"/>
<stop offset="1" stop-color="#AF8AFF" stop-opacity="0.9"/>
</linearGradient>
<linearGradient id="paint4_linear_440_746" x1="51.2946" y1="43.4272" x2="50.829" y2="16.8932" gradientUnits="userSpaceOnUse">
<stop stop-color="#B6C1FF"/>
<stop offset="1" stop-color="#AF8AFF" stop-opacity="0.9"/>
</linearGradient>
<linearGradient id="paint5_linear_440_746" x1="51.1669" y1="44.2354" x2="50.6688" y2="16.797" gradientUnits="userSpaceOnUse">
<stop stop-color="#B6C1FF"/>
<stop offset="1" stop-color="#AF8AFF" stop-opacity="0.9"/>
</linearGradient>
<linearGradient id="paint6_linear_440_746" x1="51.0373" y1="45.7129" x2="50.4688" y2="16.408" gradientUnits="userSpaceOnUse">
<stop stop-color="#B6C1FF"/>
<stop offset="1" stop-color="#AF8AFF" stop-opacity="0.9"/>
</linearGradient>
<linearGradient id="paint7_linear_440_746" x1="50.9077" y1="47.2166" x2="50.2619" y2="15.9927" gradientUnits="userSpaceOnUse">
<stop stop-color="#B6C1FF"/>
<stop offset="1" stop-color="#AF8AFF" stop-opacity="0.9"/>
</linearGradient>
<linearGradient id="paint8_linear_440_746" x1="50.7791" y1="48.7409" x2="50.0499" y2="15.569" gradientUnits="userSpaceOnUse">
<stop stop-color="#B6C1FF"/>
<stop offset="1" stop-color="#AF8AFF" stop-opacity="0.9"/>
</linearGradient>
<linearGradient id="paint9_linear_440_746" x1="50.6514" y1="50.3152" x2="49.8309" y2="15.1345" gradientUnits="userSpaceOnUse">
<stop stop-color="#B6C1FF"/>
<stop offset="1" stop-color="#AF8AFF" stop-opacity="0.9"/>
</linearGradient>
<linearGradient id="paint10_linear_440_746" x1="50.5203" y1="51.9247" x2="49.5999" y2="14.6751" gradientUnits="userSpaceOnUse">
<stop stop-color="#B6C1FF"/>
<stop offset="1" stop-color="#AF8AFF" stop-opacity="0.9"/>
</linearGradient>
<linearGradient id="paint11_linear_440_746" x1="50.3897" y1="53.5875" x2="49.3598" y2="14.1967" gradientUnits="userSpaceOnUse">
<stop stop-color="#B6C1FF"/>
<stop offset="1" stop-color="#AF8AFF" stop-opacity="0.9"/>
</linearGradient>
<linearGradient id="paint12_linear_440_746" x1="50.2669" y1="55.2826" x2="49.1192" y2="13.7078" gradientUnits="userSpaceOnUse">
<stop stop-color="#B6C1FF"/>
<stop offset="1" stop-color="#AF8AFF" stop-opacity="0.9"/>
</linearGradient>
<linearGradient id="paint13_linear_440_746" x1="50.1358" y1="57.0139" x2="48.8602" y2="13.1947" gradientUnits="userSpaceOnUse">
<stop stop-color="#B6C1FF"/>
<stop offset="1" stop-color="#AF8AFF" stop-opacity="0.9"/>
</linearGradient>
<linearGradient id="paint14_linear_440_746" x1="49.9989" y1="58.7718" x2="48.5864" y2="12.6735" gradientUnits="userSpaceOnUse">
<stop stop-color="#B6C1FF"/>
<stop offset="1" stop-color="#AF8AFF" stop-opacity="0.9"/>
</linearGradient>
<linearGradient id="paint15_linear_440_746" x1="49.8795" y1="60.554" x2="48.321" y2="12.146" gradientUnits="userSpaceOnUse">
<stop stop-color="#B6C1FF"/>
<stop offset="1" stop-color="#AF8AFF" stop-opacity="0.9"/>
</linearGradient>
<linearGradient id="paint16_linear_440_746" x1="49.7509" y1="62.3525" x2="48.0375" y2="11.6095" gradientUnits="userSpaceOnUse">
<stop stop-color="#B6C1FF"/>
<stop offset="1" stop-color="#AF8AFF" stop-opacity="0.9"/>
</linearGradient>
<linearGradient id="paint17_linear_440_746" x1="49.7919" y1="62.8213" x2="48.1938" y2="13.7934" gradientUnits="userSpaceOnUse">
<stop stop-color="#B6C1FF"/>
<stop offset="1" stop-color="#AF8AFF" stop-opacity="0.9"/>
</linearGradient>
<linearGradient id="paint18_linear_440_746" x1="49.8308" y1="63.3288" x2="48.3405" y2="15.9607" gradientUnits="userSpaceOnUse">
<stop stop-color="#B6C1FF"/>
<stop offset="1" stop-color="#AF8AFF" stop-opacity="0.9"/>
</linearGradient>
<linearGradient id="paint19_linear_440_746" x1="49.8713" y1="64.5903" x2="48.4179" y2="17.7935" gradientUnits="userSpaceOnUse">
<stop stop-color="#B6C1FF"/>
<stop offset="1" stop-color="#AF8AFF" stop-opacity="0.9"/>
</linearGradient>
<linearGradient id="paint20_linear_440_746" x1="49.9113" y1="66.7572" x2="48.4124" y2="19.2149" gradientUnits="userSpaceOnUse">
<stop stop-color="#B6C1FF"/>
<stop offset="1" stop-color="#AF8AFF" stop-opacity="0.9"/>
</linearGradient>
<linearGradient id="paint21_linear_440_746" x1="49.9493" y1="68.9911" x2="48.3991" y2="20.6252" gradientUnits="userSpaceOnUse">
<stop stop-color="#B6C1FF"/>
<stop offset="1" stop-color="#AF8AFF" stop-opacity="0.9"/>
</linearGradient>
<linearGradient id="paint22_linear_440_746" x1="49.9892" y1="71.2727" x2="48.382" y2="22.0046" gradientUnits="userSpaceOnUse">
<stop stop-color="#B6C1FF"/>
<stop offset="1" stop-color="#AF8AFF" stop-opacity="0.9"/>
</linearGradient>
<linearGradient id="paint23_linear_440_746" x1="50.0316" y1="73.6058" x2="48.3616" y2="23.3641" gradientUnits="userSpaceOnUse">
<stop stop-color="#B6C1FF"/>
<stop offset="1" stop-color="#AF8AFF" stop-opacity="0.9"/>
</linearGradient>
<linearGradient id="paint24_linear_440_746" x1="50.0716" y1="75.9718" x2="48.3341" y2="24.7051" gradientUnits="userSpaceOnUse">
<stop stop-color="#B6C1FF"/>
<stop offset="1" stop-color="#AF8AFF" stop-opacity="0.9"/>
</linearGradient>
<linearGradient id="paint25_linear_440_746" x1="50.1116" y1="78.3761" x2="48.3016" y2="26.0302" gradientUnits="userSpaceOnUse">
<stop stop-color="#B6C1FF"/>
<stop offset="1" stop-color="#AF8AFF" stop-opacity="0.9"/>
</linearGradient>
<linearGradient id="paint26_linear_440_746" x1="50.1516" y1="80.8126" x2="48.2644" y2="27.3423" gradientUnits="userSpaceOnUse">
<stop stop-color="#B6C1FF"/>
<stop offset="1" stop-color="#AF8AFF" stop-opacity="0.9"/>
</linearGradient>
<linearGradient id="paint27_linear_440_746" x1="50.192" y1="83.347" x2="48.2165" y2="28.618" gradientUnits="userSpaceOnUse">
<stop stop-color="#B6C1FF"/>
<stop offset="1" stop-color="#AF8AFF" stop-opacity="0.9"/>
</linearGradient>
<linearGradient id="paint28_linear_440_746" x1="50.232" y1="86.0745" x2="48.1443" y2="29.7933" gradientUnits="userSpaceOnUse">
<stop stop-color="#B6C1FF"/>
<stop offset="1" stop-color="#AF8AFF" stop-opacity="0.9"/>
</linearGradient>
<linearGradient id="paint29_linear_440_746" x1="50.272" y1="88.8561" x2="48.0638" y2="30.9528" gradientUnits="userSpaceOnUse">
<stop stop-color="#B6C1FF"/>
<stop offset="1" stop-color="#AF8AFF" stop-opacity="0.9"/>
</linearGradient>
<linearGradient id="paint30_linear_440_746" x1="50.3099" y1="91.9152" x2="47.9465" y2="31.9905" gradientUnits="userSpaceOnUse">
<stop stop-color="#B6C1FF"/>
<stop offset="1" stop-color="#AF8AFF" stop-opacity="0.9"/>
</linearGradient>
<linearGradient id="paint31_linear_440_746" x1="50.3524" y1="94.9493" x2="47.8317" y2="33.0396" gradientUnits="userSpaceOnUse">
<stop stop-color="#B6C1FF"/>
<stop offset="1" stop-color="#AF8AFF" stop-opacity="0.9"/>
</linearGradient>
<linearGradient id="paint32_linear_440_746" x1="50.3923" y1="97.9849" x2="47.7092" y2="34.0886" gradientUnits="userSpaceOnUse">
<stop stop-color="#B6C1FF"/>
<stop offset="1" stop-color="#AF8AFF" stop-opacity="0.9"/>
</linearGradient>
</defs>
</svg>
