<?xml version="1.0" standalone="no"?>
<!DOCTYPE svg PUBLIC "-//W3C//DTD SVG 20010904//EN"
 "http://www.w3.org/TR/2001/REC-SVG-20010904/DTD/svg10.dtd">
<svg version="1.0" xmlns="http://www.w3.org/2000/svg"
 width="81.000000pt" height="80.000000pt" viewBox="0 0 81.000000 80.000000"
 preserveAspectRatio="xMidYMid meet">
<metadata>
Created by potrace 1.10, written by Peter Selinger 2001-2011
</metadata>
<g transform="translate(0.000000,80.000000) scale(0.100000,-0.100000)"
fill="#602dfb" stroke="none">
<path d="M542 717 c-45 -45 -82 -86 -82 -90 0 -4 18 -7 40 -7 l40 0 0 -85 0
-85 -75 0 -75 0 0 -55 0 -55 -80 0 -80 0 0 -55 0 -54 -77 -3 -77 -3 3 -102 3
-103 -41 0 c-23 0 -41 -4 -41 -10 0 -7 142 -10 405 -10 263 0 405 3 405 10 0
6 -20 10 -45 10 l-45 0 0 300 0 300 40 0 c22 0 40 3 40 8 0 8 -162 172 -170
172 -3 0 -42 -37 -88 -83z m158 -12 l64 -65 -32 0 -32 0 0 -310 0 -310 -70 0
-70 0 0 310 0 310 -32 0 -32 0 64 65 c35 36 67 65 70 65 3 0 35 -29 70 -65z
m-160 -480 l0 -205 -65 0 -65 0 0 205 0 205 65 0 65 0 0 -205z m-150 -55 l0
-150 -70 0 -70 0 0 150 0 150 70 0 70 0 0 -150z m-160 -55 l0 -95 -65 0 -65 0
0 95 0 95 65 0 65 0 0 -95z"/>
</g>
</svg>
