<?xml version="1.0" standalone="no"?>
<!DOCTYPE svg PUBLIC "-//W3C//DTD SVG 20010904//EN"
 "http://www.w3.org/TR/2001/REC-SVG-20010904/DTD/svg10.dtd">
<svg version="1.0" xmlns="http://www.w3.org/2000/svg"
 width="81.000000pt" height="80.000000pt" viewBox="0 0 81.000000 80.000000"
 preserveAspectRatio="xMidYMid meet">
<metadata>
Created by potrace 1.10, written by Peter Selinger 2001-2011
</metadata>
<g transform="translate(0.000000,80.000000) scale(0.050000,-0.050000)"
fill="#000000" stroke="none">
<path d="M1085 1435 c-190 -191 -192 -195 -85 -195 l80 0 0 -169 0 -169 -155
-6 -155 -6 -6 -105 -6 -105 -149 0 -149 0 0 -109 0 -109 -155 -6 -155 -6 -2
-200 -1 -200 -74 -6 c-40 -4 -73 -15 -73 -25 0 -12 318 -19 810 -19 527 0 810
7 810 20 0 11 -40 20 -90 20 l-90 0 0 600 0 600 80 0 c108 0 105 6 -85 195
-199 198 -153 198 -350 0z m415 -138 c0 -8 -25 -17 -55 -21 l-55 -6 0 -616 0
-616 -127 6 -128 6 4 614 3 613 -65 7 -65 6 128 125 128 126 116 -115 c64 -63
116 -121 116 -129z m-425 -854 l6 -403 -131 0 -130 0 0 399 0 399 105 7 c58 4
114 6 125 4 12 -1 22 -156 25 -406z m-312 -63 c2 -143 4 -276 5 -295 2 -30
-17 -35 -127 -35 l-128 0 2 210 c2 116 3 248 4 295 l1 85 120 0 120 0 3 -260z
m-307 -156 l6 -184 -131 0 -131 0 0 177 c0 209 -10 195 134 192 l116 -2 6
-183z"/>
</g>
</svg>
