<?xml version="1.0" standalone="no"?>
<!DOCTYPE svg PUBLIC "-//W3C//DTD SVG 20010904//EN"
 "http://www.w3.org/TR/2001/REC-SVG-20010904/DTD/svg10.dtd">
<svg version="1.0" xmlns="http://www.w3.org/2000/svg"
 width="84.000000pt" height="80.000000pt" viewBox="0 0 84.000000 80.000000"
 preserveAspectRatio="xMidYMid meet">
<metadata>
Created by potrace 1.10, written by Peter Selinger 2001-2011
</metadata>
<g transform="translate(0.000000,80.000000) scale(0.050000,-0.050000)"
fill="#602dfb" stroke="none">
<path d="M400 1524 c0 -35 277 -288 300 -274 16 10 -21 60 -112 152 -123 124
-188 166 -188 122z"/>
<path d="M1104 1414 c-112 -113 -150 -174 -108 -174 27 0 286 272 271 286 -24
24 -36 17 -163 -112z"/>
<path d="M814 1466 c-14 -21 0 -227 16 -243 24 -23 42 37 41 140 -1 94 -30
147 -57 103z"/>
<path d="M160 1067 c-186 -225 -180 -207 -89 -277 116 -88 253 -290 241 -354
-8 -42 1 -63 40 -94 28 -22 46 -48 41 -58 -18 -29 46 -104 89 -104 21 0 44
-13 50 -29 6 -15 37 -37 70 -49 32 -11 58 -29 58 -40 0 -53 82 -65 154 -22
l71 42 44 -41 c59 -56 127 -53 154 7 12 26 43 57 69 69 26 12 48 36 48 53 0
17 23 40 52 51 28 11 56 35 61 55 5 20 29 44 53 55 33 14 47 41 54 109 18 148
93 303 180 370 100 77 104 63 -63 271 -162 203 -152 198 -263 122 -73 -50
-104 -58 -242 -61 -87 -2 -175 -13 -197 -25 -61 -32 -203 -2 -349 74 -169 88
-141 99 -326 -124z m265 94 c75 -37 74 -38 -90 -230 l-145 -169 -56 44 c-32
24 -57 51 -58 61 0 24 267 336 282 328 6 -3 37 -19 67 -34z m1083 -128 c108
-134 124 -180 56 -169 -18 4 -33 -7 -34 -24 -1 -69 -67 -29 -170 104 -60 78
-110 150 -110 159 0 26 117 98 133 81 7 -8 63 -76 125 -151z m-897 46 c49 -18
52 -23 24 -55 -132 -153 -162 -304 -67 -347 64 -29 118 3 174 103 41 73 53 80
127 80 117 0 543 -416 485 -474 -32 -33 -42 -27 -174 104 -98 98 -146 132
-161 117 -15 -15 18 -57 112 -143 83 -77 130 -135 126 -157 -13 -65 -59 -50
-160 53 -70 70 -109 96 -123 82 -14 -14 12 -49 83 -113 106 -95 126 -141 72
-162 -20 -8 -57 12 -98 52 -91 89 -118 41 -29 -51 63 -65 65 -70 31 -103 -37
-37 -81 -2 -203 164 -22 30 -58 75 -81 100 -23 25 -38 53 -35 64 9 27 -70 107
-106 107 -16 0 -56 19 -88 43 -54 40 -61 41 -106 11 -52 -34 -191 113 -166
177 10 27 291 369 303 369 4 0 31 -9 60 -21z m559 6 c12 -8 81 -89 155 -178
l134 -164 -46 -111 -45 -111 -199 200 -198 199 -104 0 c-103 0 -104 -1 -166
-101 -65 -106 -126 -128 -136 -49 -19 147 171 288 415 310 83 8 155 15 160 17
6 1 19 -4 30 -12z m-657 -596 c14 -35 -65 -129 -107 -129 -50 0 -52 61 -5 111
53 56 95 63 112 18z m140 -81 c23 -59 -145 -205 -187 -163 -32 33 -30 39 44
115 84 86 124 99 143 48z m83 -134 c8 -38 -91 -139 -124 -128 -46 15 -34 90
20 132 60 48 95 46 104 -4z m91 -122 c5 -16 -7 -44 -28 -63 -40 -36 -99 -27
-99 16 0 65 105 103 127 47z"/>
</g>
</svg>
