<svg width="28" height="28" viewBox="0 0 28 28" fill="none" xmlns="http://www.w3.org/2000/svg">
<path fill-rule="evenodd" clip-rule="evenodd" d="M25.2 23.8126C25.2 24.584 24.5093 25.2 23.7373 25.2H19.5373C19.3619 25.2043 19.1875 25.1715 19.0244 25.1036C18.8614 25.0356 18.713 24.9338 18.5882 24.8044C18.4634 24.6749 18.3647 24.5203 18.298 24.3499C18.2313 24.1796 18.198 23.9968 18.2 23.8126V19.6126C18.1973 19.427 18.23 19.2428 18.2962 19.0707C18.3624 18.8986 18.4606 18.7421 18.5852 18.6105C18.7099 18.4788 18.8583 18.3747 19.0218 18.3042C19.1853 18.2337 19.3606 18.1983 19.5373 18.2H23.7373C24.5107 18.2 25.2 18.8412 25.2 19.6126V23.8126ZM23.7373 15.4H19.5373C17.2173 15.4 15.4 17.2928 15.4 19.6126V23.8126C15.4 26.1324 17.2173 28 19.5373 28H23.7373C26.0573 28 28 26.1324 28 23.8126V19.6126C28 17.2928 26.0573 15.4 23.7373 15.4ZM9.8 23.8126C9.8 24.584 9.10933 25.2 8.33733 25.2H4.13733C3.96193 25.2043 3.7875 25.1715 3.62443 25.1036C3.46137 25.0356 3.31301 24.9338 3.1882 24.8044C3.0634 24.6749 2.96471 24.5203 2.89801 24.3499C2.83132 24.1796 2.79798 23.9968 2.8 23.8126V19.6126C2.79733 19.427 2.83003 19.2428 2.89619 19.0707C2.96235 18.8986 3.06063 18.7421 3.18524 18.6105C3.30985 18.4788 3.45828 18.3747 3.62179 18.3042C3.7853 18.2337 3.96059 18.1983 4.13733 18.2H8.33733C9.11067 18.2 9.8 18.8412 9.8 19.6126V23.8126ZM8.33733 15.4H4.13733C1.81733 15.4 0 17.2928 0 19.6126V23.8126C0 26.1324 1.81733 28 4.13733 28H8.33733C10.6573 28 12.6 26.1324 12.6 23.8126V19.6126C12.6 17.2928 10.6573 15.4 8.33733 15.4ZM25.2 8.4126C25.2 9.184 24.5093 9.8 23.7373 9.8H19.5373C19.3619 9.80434 19.1875 9.77154 19.0244 9.70356C18.8614 9.63559 18.713 9.53383 18.5882 9.40435C18.4634 9.27487 18.3647 9.12033 18.298 8.94994C18.2313 8.77956 18.198 8.59681 18.2 8.4126V4.2126C18.1973 4.02703 18.23 3.84277 18.2962 3.67067C18.3624 3.49856 18.4606 3.3421 18.5852 3.21047C18.7099 3.07885 18.8583 2.97472 19.0218 2.90423C19.1853 2.83374 19.3606 2.7983 19.5373 2.8H23.7373C24.5107 2.8 25.2 3.4412 25.2 4.2126V8.4126ZM23.7373 0H19.5373C17.2173 0 15.4 1.8928 15.4 4.2126V8.4126C15.4 10.7324 17.2173 12.6 19.5373 12.6H23.7373C26.0573 12.6 28 10.7324 28 8.4126V4.2126C28 1.8928 26.0573 0 23.7373 0ZM9.8 8.4126C9.8 9.184 9.10933 9.8 8.33733 9.8H4.13733C3.96193 9.80434 3.7875 9.77154 3.62443 9.70356C3.46137 9.63559 3.31301 9.53383 3.1882 9.40435C3.0634 9.27487 2.96471 9.12033 2.89801 8.94994C2.83132 8.77956 2.79798 8.59681 2.8 8.4126V4.2126C2.79733 4.02703 2.83003 3.84277 2.89619 3.67067C2.96235 3.49856 3.06063 3.3421 3.18524 3.21047C3.30985 3.07885 3.45828 2.97472 3.62179 2.90423C3.7853 2.83374 3.96059 2.7983 4.13733 2.8H8.33733C9.11067 2.8 9.8 3.4412 9.8 4.2126V8.4126ZM8.33733 0H4.13733C1.81733 0 0 1.8928 0 4.2126V8.4126C0 10.7324 1.81733 12.6 4.13733 12.6H8.33733C10.6573 12.6 12.6 10.7324 12.6 8.4126V4.2126C12.6 1.8928 10.6573 0 8.33733 0Z" fill="#3E2C75"/>
</svg>
