<svg width="184" height="225" viewBox="0 0 184 225" fill="none" xmlns="http://www.w3.org/2000/svg">
<path d="M108.476 101.096C97.9334 107.132 92.2495 127.908 96.4837 138.529C101.162 150.259 130.413 148.477 133.769 145.617C137.125 142.757 109.686 133.605 113.43 122.813C117.589 110.833 138.47 110.817 137.901 105.702C137.342 100.669 120.662 94.1204 108.476 101.096Z" stroke="url(#paint0_linear_271_698)" stroke-miterlimit="10"/>
<path d="M105.177 99.6202C92.8201 104.88 87.4584 130.028 92.9056 141.876C99.0792 155.295 130.858 150.321 135.576 148.198C139.642 146.37 113.245 134.062 116.4 121.021C119.826 106.852 138.659 104.551 137.252 101.264C135.74 97.7398 119.678 93.4629 105.177 99.6202Z" stroke="url(#paint1_linear_271_698)" stroke-miterlimit="10"/>
<path d="M101.875 98.1475C87.7226 102.615 82.6732 132.145 89.3235 145.219C97.0061 160.341 131.047 152.123 137.378 150.782C141.981 149.795 116.822 134.535 119.364 119.223C122.076 102.891 139.269 98.1014 136.599 96.849C134.607 94.63 118.742 92.8186 101.875 98.1475Z" stroke="url(#paint2_linear_271_698)" stroke-miterlimit="10"/>
<path d="M98.5732 96.6619C82.6361 100.37 77.899 134.25 85.7525 148.556C94.9571 165.348 131.687 156.298 139.192 153.356C143.893 151.512 120.424 135.002 122.338 117.428C124.353 98.9334 139.675 91.7407 135.957 92.4212C133.239 91.6092 117.804 92.1943 98.5732 96.6619Z" stroke="url(#paint3_linear_271_698)" stroke-miterlimit="10"/>
<path d="M95.2712 95.1954C77.5555 98.154 73.1307 136.366 82.1611 151.912C92.8911 170.387 131.472 158.283 140.985 155.946C146.324 154.631 124.016 135.492 125.295 115.646C126.61 94.9883 140.417 86.2209 135.295 88.0059C132.014 89.1467 116.872 91.5859 95.2712 95.1954Z" stroke="url(#paint4_linear_271_698)" stroke-miterlimit="10"/>
<path d="M91.976 93.7195C72.4786 95.9451 68.3694 138.477 78.5833 155.256C90.8485 175.411 131.319 156.748 142.795 158.543C148.742 159.467 127.634 135.985 128.265 113.865C128.923 91.0502 140.922 79.7055 134.646 83.5977C130.741 86.0041 115.948 90.9877 91.976 93.7195Z" stroke="url(#paint5_linear_271_698)" stroke-miterlimit="10"/>
<path d="M88.6758 92.2468C67.3999 93.7392 63.6096 140.571 75.0003 158.602C88.8073 180.43 131.461 158.103 144.597 161.111C151.024 162.583 131.247 136.455 131.227 112.06C131.208 87.0757 141.32 73.2031 133.992 79.1598C129.396 82.8975 115.021 90.396 88.6758 92.2468Z" stroke="url(#paint6_linear_271_698)" stroke-miterlimit="10"/>
<path d="M85.3766 90.7707C62.3223 91.5399 58.8607 142.685 71.4217 161.949C86.7606 185.45 131.64 159.408 146.403 163.694C153.326 165.703 134.871 136.929 134.197 110.268C133.51 83.1276 141.692 66.7532 133.343 74.7382C128.03 79.8139 114.088 89.814 85.3766 90.7707Z" stroke="url(#paint7_linear_271_698)" stroke-miterlimit="10"/>
<path d="M82.0722 89.2947C57.2395 89.344 54.0902 144.789 67.838 165.295C84.7153 190.47 131.843 160.693 148.204 166.282C155.64 168.823 138.493 137.412 137.159 108.48C135.808 79.1761 142.054 60.3329 132.688 70.3167C126.646 76.7501 113.161 89.2355 82.0722 89.2947Z" stroke="url(#paint8_linear_271_698)" stroke-miterlimit="10"/>
<path d="M78.7732 87.822C52.1455 87.1645 49.3348 146.889 64.2595 168.639C82.6687 195.483 132.078 161.942 150.01 168.859C157.972 171.929 142.121 137.885 140.125 106.685C138.113 75.2182 142.427 53.9194 132.035 65.8887C125.263 73.6962 112.232 88.6636 78.7732 87.822Z" stroke="url(#paint9_linear_271_698)" stroke-miterlimit="10"/>
<path d="M75.4729 86.3458C47.0766 84.9618 44.5716 148.99 60.6797 171.985C80.6406 200.5 132.344 163.188 151.815 171.443C160.313 175.039 145.754 138.362 143.094 104.893C140.421 71.2601 142.785 47.522 131.384 61.467C123.876 70.6486 111.299 88.0947 75.4729 86.3458Z" stroke="url(#paint10_linear_271_698)" stroke-miterlimit="10"/>
<path d="M72.1737 84.8697C41.9957 82.7723 39.8293 151.09 57.1012 175.331C78.6071 205.513 132.599 164.424 153.622 174.017C162.659 178.145 149.384 138.842 146.061 103.092C142.731 67.2954 143.151 41.1214 130.735 57.0355C122.493 67.6044 110.366 87.5259 72.1737 84.8697Z" stroke="url(#paint11_linear_271_698)" stroke-miterlimit="10"/>
<path d="M68.8731 83.3969C36.91 80.5862 35.0756 153.204 53.521 178.675C76.5721 210.526 132.878 165.657 155.429 176.607C165.015 181.262 153.02 139.312 149.029 101.307C145.038 63.3013 143.516 34.7406 130.084 52.6107C121.106 64.5636 109.433 86.9637 68.8731 83.3969Z" stroke="url(#paint12_linear_271_698)" stroke-miterlimit="10"/>
<path d="M65.5694 81.921C31.8213 78.4002 30.319 155.288 49.9347 182.021C74.534 215.552 133.168 166.899 157.228 179.191C167.369 184.375 156.649 139.785 151.991 99.515C147.346 59.3861 143.881 28.3599 129.427 48.1959C119.716 61.5262 108.496 86.3984 65.5694 81.921Z" stroke="url(#paint13_linear_271_698)" stroke-miterlimit="10"/>
<path d="M62.2718 80.4452C26.7387 76.2143 25.621 157.35 46.3675 185.368C72.5777 220.503 133.483 168.109 159.045 181.772C169.742 187.488 160.298 140.259 154.969 97.7236C149.67 55.4283 144.262 21.9761 128.788 43.7713C118.331 58.4889 107.559 85.8397 62.2718 80.4452Z" stroke="url(#paint14_linear_271_698)" stroke-miterlimit="10"/>
<path d="M58.9696 78.9724C21.6514 74.0315 20.8625 159.45 42.7761 188.708C70.5247 225.526 133.774 169.313 160.839 184.349C172.098 190.595 163.922 140.726 157.923 95.9188C151.973 51.4538 144.619 15.5854 128.126 39.3333C116.942 55.4513 106.62 85.2776 58.9696 78.9724Z" stroke="url(#paint15_linear_271_698)" stroke-miterlimit="10"/>
<path d="M55.6708 77.4961C16.5511 71.8485 16.104 161.554 39.1978 192.058C68.485 230.52 134.084 170.555 162.645 186.936C174.48 193.718 167.639 141.195 160.89 94.1368C154.364 47.4956 144.989 9.21754 127.477 34.9248C115.557 52.4168 105.682 84.7185 55.6708 77.4961Z" stroke="url(#paint16_linear_271_698)" stroke-miterlimit="10"/>
<path d="M52.369 76.0201C11.4643 69.738 11.3427 163.658 35.6166 195.404C66.4422 235.556 134.399 171.778 164.452 189.52C176.835 196.831 171.257 141.669 163.857 92.3452C156.661 43.5377 145.355 2.84335 126.821 30.5C114.168 49.3826 104.727 84.2517 52.369 76.0201Z" stroke="url(#paint17_linear_271_698)" stroke-miterlimit="10"/>
<path d="M49.0704 74.5476C6.3806 67.5389 6.591 165.759 32.0385 198.751C64.3993 240.573 134.719 172.998 166.258 192.104C179.207 199.947 174.881 142.136 166.824 90.5538C158.96 39.5799 145.729 -3.53394 126.172 26.0787C112.773 46.365 103.792 83.6733 49.0704 74.5476Z" stroke="url(#paint18_linear_271_698)" stroke-miterlimit="10"/>
<path d="M45.7697 73.0714C1.29488 65.3395 1.82743 167.863 28.4584 202.094C62.3577 245.579 135.045 174.22 168.063 194.684C181.581 203.064 178.52 142.619 169.789 88.7719C161.242 35.6316 146.044 -9.93462 125.521 21.6636C111.356 43.2911 102.855 83.0913 45.7697 73.0714Z" stroke="url(#paint19_linear_271_698)" stroke-miterlimit="10"/>
<path d="M42.4693 71.5954C-3.79056 63.1304 -2.94242 169.97 24.8786 205.441C60.3164 250.606 135.37 175.443 169.868 197.255C183.958 206.17 182.126 143.079 172.757 86.9572C163.556 31.6604 146.442 -16.299 124.87 17.2289C109.989 40.2733 101.925 82.5259 42.4693 71.5954Z" stroke="url(#paint20_linear_271_698)" stroke-miterlimit="10"/>
<path d="M124.215 12.8074C108.62 37.2522 100.977 81.9309 39.1676 70.1226C-8.88055 60.941 -7.69381 172.067 21.2942 208.787C58.2738 255.625 135.695 176.666 171.672 199.849C200.765 218.6 169.821 -58.683 124.215 12.8074Z" stroke="url(#paint21_linear_271_698)" stroke-miterlimit="10"/>
<defs>
<linearGradient id="paint0_linear_271_698" x1="107.863" y1="76.1363" x2="147.342" y2="125.683" gradientUnits="userSpaceOnUse">
<stop offset="0.360577" stop-color="#BDA8FF"/>
<stop offset="1" stop-color="#A981FF"/>
</linearGradient>
<linearGradient id="paint1_linear_271_698" x1="104.677" y1="72.5083" x2="147.958" y2="126.43" gradientUnits="userSpaceOnUse">
<stop offset="0.360577" stop-color="#BDA8FF"/>
<stop offset="1" stop-color="#A981FF"/>
</linearGradient>
<linearGradient id="paint2_linear_271_698" x1="101.806" y1="68.3846" x2="149.095" y2="127.925" gradientUnits="userSpaceOnUse">
<stop offset="0.360577" stop-color="#BDA8FF"/>
<stop offset="1" stop-color="#A981FF"/>
</linearGradient>
<linearGradient id="paint3_linear_271_698" x1="99.2852" y1="62.8413" x2="151.873" y2="129.515" gradientUnits="userSpaceOnUse">
<stop offset="0.360577" stop-color="#BDA8FF"/>
<stop offset="1" stop-color="#A981FF"/>
</linearGradient>
<linearGradient id="paint4_linear_271_698" x1="96.7767" y1="55.0262" x2="155.717" y2="129.231" gradientUnits="userSpaceOnUse">
<stop offset="0.360577" stop-color="#BDA8FF"/>
<stop offset="1" stop-color="#A981FF"/>
</linearGradient>
<linearGradient id="paint5_linear_271_698" x1="94.2704" y1="46.7203" x2="159.3" y2="128.449" gradientUnits="userSpaceOnUse">
<stop offset="0.360577" stop-color="#BDA8FF"/>
<stop offset="1" stop-color="#A981FF"/>
</linearGradient>
<linearGradient id="paint6_linear_271_698" x1="91.7471" y1="37.847" x2="163.844" y2="127.325" gradientUnits="userSpaceOnUse">
<stop offset="0.360577" stop-color="#BDA8FF"/>
<stop offset="1" stop-color="#A981FF"/>
</linearGradient>
<linearGradient id="paint7_linear_271_698" x1="89.2312" y1="28.9327" x2="168.428" y2="126.205" gradientUnits="userSpaceOnUse">
<stop offset="0.360577" stop-color="#BDA8FF"/>
<stop offset="1" stop-color="#A981FF"/>
</linearGradient>
<linearGradient id="paint8_linear_271_698" x1="86.7106" y1="19.9835" x2="173.032" y2="125.107" gradientUnits="userSpaceOnUse">
<stop offset="0.360577" stop-color="#BDA8FF"/>
<stop offset="1" stop-color="#A981FF"/>
</linearGradient>
<linearGradient id="paint9_linear_271_698" x1="84.2032" y1="11.0031" x2="177.665" y2="124.03" gradientUnits="userSpaceOnUse">
<stop offset="0.360577" stop-color="#BDA8FF"/>
<stop offset="1" stop-color="#A981FF"/>
</linearGradient>
<linearGradient id="paint10_linear_271_698" x1="81.7085" y1="2.01177" x2="182.318" y2="122.994" gradientUnits="userSpaceOnUse">
<stop offset="0.360577" stop-color="#BDA8FF"/>
<stop offset="1" stop-color="#A981FF"/>
</linearGradient>
<linearGradient id="paint11_linear_271_698" x1="79.2303" y1="-7.00546" x2="187" y2="121.986" gradientUnits="userSpaceOnUse">
<stop offset="0.360577" stop-color="#BDA8FF"/>
<stop offset="1" stop-color="#A981FF"/>
</linearGradient>
<linearGradient id="paint12_linear_271_698" x1="76.763" y1="-16.0234" x2="191.687" y2="121.049" gradientUnits="userSpaceOnUse">
<stop offset="0.360577" stop-color="#BDA8FF"/>
<stop offset="1" stop-color="#A981FF"/>
</linearGradient>
<linearGradient id="paint13_linear_271_698" x1="74.3071" y1="-25.0363" x2="196.381" y2="120.179" gradientUnits="userSpaceOnUse">
<stop offset="0.360577" stop-color="#BDA8FF"/>
<stop offset="1" stop-color="#A981FF"/>
</linearGradient>
<linearGradient id="paint14_linear_271_698" x1="71.8956" y1="-34.0559" x2="201.095" y2="119.354" gradientUnits="userSpaceOnUse">
<stop offset="0.360577" stop-color="#BDA8FF"/>
<stop offset="1" stop-color="#A981FF"/>
</linearGradient>
<linearGradient id="paint15_linear_271_698" x1="69.4734" y1="-43.11" x2="205.828" y2="118.581" gradientUnits="userSpaceOnUse">
<stop offset="0.360577" stop-color="#BDA8FF"/>
<stop offset="1" stop-color="#A981FF"/>
</linearGradient>
<linearGradient id="paint16_linear_271_698" x1="67.081" y1="-52.1319" x2="210.553" y2="117.947" gradientUnits="userSpaceOnUse">
<stop offset="0.360577" stop-color="#BDA8FF"/>
<stop offset="1" stop-color="#A981FF"/>
</linearGradient>
<linearGradient id="paint17_linear_271_698" x1="64.6975" y1="-61.1792" x2="215.311" y2="117.321" gradientUnits="userSpaceOnUse">
<stop offset="0.360577" stop-color="#BDA8FF"/>
<stop offset="1" stop-color="#A981FF"/>
</linearGradient>
<linearGradient id="paint18_linear_271_698" x1="62.3379" y1="-70.2259" x2="220.078" y2="116.761" gradientUnits="userSpaceOnUse">
<stop offset="0.360577" stop-color="#BDA8FF"/>
<stop offset="1" stop-color="#A981FF"/>
</linearGradient>
<linearGradient id="paint19_linear_271_698" x1="59.9915" y1="-79.2811" x2="224.851" y2="116.261" gradientUnits="userSpaceOnUse">
<stop offset="0.360577" stop-color="#BDA8FF"/>
<stop offset="1" stop-color="#A981FF"/>
</linearGradient>
<linearGradient id="paint20_linear_271_698" x1="57.6546" y1="-88.3394" x2="229.636" y2="115.803" gradientUnits="userSpaceOnUse">
<stop offset="0.360577" stop-color="#BDA8FF"/>
<stop offset="1" stop-color="#A981FF"/>
</linearGradient>
<linearGradient id="paint21_linear_271_698" x1="55.335" y1="-97.3826" x2="234.42" y2="115.402" gradientUnits="userSpaceOnUse">
<stop offset="0.360577" stop-color="#BDA8FF"/>
<stop offset="1" stop-color="#A981FF"/>
</linearGradient>
</defs>
</svg>
