<svg width="36" height="481" viewBox="0 0 36 481" fill="none" xmlns="http://www.w3.org/2000/svg">
<g opacity="0.5">
<path d="M18.2677 152.34C16.3864 152.34 14.7884 152 13.4737 151.32C12.159 150.64 10.9804 149.643 9.93771 148.328L12.5897 145.676C13.247 146.628 14.029 147.376 14.9357 147.92C15.8424 148.441 16.9984 148.702 18.4037 148.702C19.7184 148.702 20.761 148.43 21.5317 147.886C22.325 147.342 22.7217 146.594 22.7217 145.642C22.7217 144.849 22.5177 144.203 22.1097 143.704C21.7017 143.205 21.1577 142.797 20.4777 142.48C19.8204 142.14 19.0837 141.845 18.2677 141.596C17.4744 141.324 16.6697 141.029 15.8537 140.712C15.0604 140.372 14.3237 139.953 13.6437 139.454C12.9864 138.955 12.4537 138.309 12.0457 137.516C11.6377 136.723 11.4337 135.714 11.4337 134.49C11.4337 133.085 11.7737 131.895 12.4537 130.92C13.1564 129.923 14.097 129.163 15.2757 128.642C16.4544 128.121 17.769 127.86 19.2197 127.86C20.7837 127.86 22.1777 128.166 23.4017 128.778C24.6484 129.39 25.657 130.172 26.4277 131.124L23.7757 133.776C23.0957 133.005 22.3817 132.439 21.6337 132.076C20.9084 131.691 20.0697 131.498 19.1177 131.498C17.939 131.498 17.0097 131.736 16.3297 132.212C15.6724 132.688 15.3437 133.357 15.3437 134.218C15.3437 134.943 15.5477 135.533 15.9557 135.986C16.3637 136.417 16.8964 136.791 17.5537 137.108C18.2337 137.403 18.9704 137.686 19.7637 137.958C20.5797 138.23 21.3844 138.536 22.1777 138.876C22.9937 139.216 23.7304 139.658 24.3877 140.202C25.0677 140.723 25.6117 141.403 26.0197 142.242C26.4277 143.081 26.6317 144.135 26.6317 145.404C26.6317 147.535 25.8724 149.223 24.3537 150.47C22.8577 151.717 20.829 152.34 18.2677 152.34ZM20.2915 192.34C18.5688 192.34 16.9708 192.034 15.4975 191.422C14.0468 190.787 12.7775 189.915 11.6895 188.804C10.6015 187.671 9.76284 186.367 9.17351 184.894C8.58417 183.398 8.28951 181.8 8.28951 180.1C8.28951 178.4 8.58417 176.813 9.17351 175.34C9.76284 173.844 10.6015 172.541 11.6895 171.43C12.7775 170.319 14.0468 169.447 15.4975 168.812C16.9708 168.177 18.5688 167.86 20.2915 167.86C22.2182 167.86 23.8842 168.177 25.2895 168.812C26.6948 169.447 27.9415 170.308 29.0295 171.396L26.3775 174.048C25.6748 173.277 24.8135 172.677 23.7935 172.246C22.7962 171.815 21.6288 171.6 20.2915 171.6C19.1128 171.6 18.0362 171.804 17.0615 172.212C16.0868 172.62 15.2368 173.209 14.5115 173.98C13.8088 174.728 13.2648 175.623 12.8795 176.666C12.4942 177.709 12.3015 178.853 12.3015 180.1C12.3015 181.347 12.4942 182.491 12.8795 183.534C13.2648 184.577 13.8088 185.483 14.5115 186.254C15.2368 187.002 16.0868 187.58 17.0615 187.988C18.0362 188.396 19.1128 188.6 20.2915 188.6C21.7422 188.6 22.9662 188.385 23.9635 187.954C24.9835 187.501 25.8448 186.889 26.5475 186.118L29.1995 188.77C28.1115 189.881 26.8308 190.753 25.3575 191.388C23.8842 192.023 22.1955 192.34 20.2915 192.34ZM13.0952 221.902V218.672H19.1132C20.3145 218.672 21.2439 218.366 21.9012 217.754C22.5812 217.119 22.9212 216.247 22.9212 215.136C22.9212 214.139 22.5925 213.3 21.9352 212.62C21.2779 211.94 20.3485 211.6 19.1472 211.6H13.0952V208.2H19.3172C20.8132 208.2 22.1279 208.506 23.2612 209.118C24.3945 209.707 25.2672 210.523 25.8792 211.566C26.5139 212.586 26.8312 213.753 26.8312 215.068C26.8312 216.451 26.5139 217.652 25.8792 218.672C25.2672 219.692 24.3945 220.485 23.2612 221.052C22.1279 221.619 20.8132 221.902 19.3172 221.902H13.0952ZM10.4092 232V208.2H14.3192V232H10.4092ZM23.4652 232L15.1352 221.664L18.7732 220.338L28.3952 232H23.4652ZM18.5349 272.34C16.8349 272.34 15.2483 272.023 13.7749 271.388C12.3016 270.753 11.0096 269.881 9.89893 268.77C8.78826 267.637 7.9156 266.333 7.28093 264.86C6.66893 263.364 6.36293 261.766 6.36293 260.066C6.36293 258.366 6.66893 256.779 7.28093 255.306C7.9156 253.833 8.77693 252.541 9.86493 251.43C10.9756 250.297 12.2563 249.424 13.7069 248.812C15.1803 248.177 16.7669 247.86 18.4669 247.86C20.1669 247.86 21.7423 248.177 23.1929 248.812C24.6663 249.424 25.9583 250.297 27.0689 251.43C28.1796 252.541 29.0409 253.844 29.6529 255.34C30.2876 256.813 30.6049 258.4 30.6049 260.1C30.6049 261.8 30.2876 263.398 29.6529 264.894C29.0409 266.367 28.1796 267.659 27.0689 268.77C25.9809 269.881 24.7003 270.753 23.2269 271.388C21.7763 272.023 20.2123 272.34 18.5349 272.34ZM18.4669 268.6C20.0763 268.6 21.4816 268.237 22.6829 267.512C23.9069 266.787 24.8589 265.789 25.5389 264.52C26.2416 263.228 26.5929 261.743 26.5929 260.066C26.5929 258.819 26.3889 257.686 25.9809 256.666C25.5956 255.623 25.0403 254.728 24.3149 253.98C23.5896 253.209 22.7283 252.62 21.7309 252.212C20.7563 251.804 19.6683 251.6 18.4669 251.6C16.8803 251.6 15.4749 251.963 14.2509 252.688C13.0496 253.391 12.0976 254.377 11.3949 255.646C10.7149 256.915 10.3749 258.389 10.3749 260.066C10.3749 261.313 10.5676 262.469 10.9529 263.534C11.3609 264.577 11.9163 265.472 12.6189 266.22C13.3443 266.968 14.2056 267.557 15.2029 267.988C16.2003 268.396 17.2883 268.6 18.4669 268.6ZM11.7373 312V288.2H15.6473V312H11.7373ZM14.4233 312V308.43H26.8673V312H14.4233ZM11.7373 352V328.2H15.6473V352H11.7373ZM14.4233 352V348.43H26.8673V352H14.4233Z" fill="#602DFB"/>
<path d="M23.409 396.337L29.07 396.337L19.125 418.828L15.045 418.828L5.1 396.337L10.761 396.337L18.105 414.136L16.065 414.136L23.409 396.337ZM23.409 425.758L29.07 425.758L19.125 448.249L15.045 448.249L5.1 425.758L10.761 425.758L18.105 443.557L16.065 443.557L23.409 425.758ZM23.409 455.178L29.07 455.178L19.125 477.669L15.045 477.669L5.1 455.178L10.761 455.178L18.105 472.977L16.065 472.977L23.409 455.178Z" fill="#602DFB"/>
<path d="M23.409 84.1629L29.07 84.1629L19.125 61.6719L15.045 61.6719L5.1 84.1629L10.761 84.1629L18.105 66.3639L16.065 66.3639L23.409 84.1629ZM23.409 54.7423L29.07 54.7423L19.125 32.2513L15.045 32.2513L5.1 54.7423L10.761 54.7423L18.105 36.9433L16.065 36.9433L23.409 54.7423ZM23.409 25.3217L29.07 25.3217L19.125 2.83068L15.045 2.83068L5.1 25.3217L10.761 25.3217L18.105 7.52269L16.065 7.52269L23.409 25.3217Z" fill="#602DFB"/>
</g>
</svg>
