<svg width="118" height="112" viewBox="0 0 118 112" fill="none" xmlns="http://www.w3.org/2000/svg">
<path d="M37.9118 77.5479C38.3514 74.3263 39.3372 70.6315 40.8389 66.566C42.4081 62.3778 44.264 58.2999 46.3939 54.3605C48.6108 50.2257 51.0858 46.2309 53.8046 42.3992C56.3522 38.7662 59.1819 35.3343 62.2683 32.1345C65.0977 29.2263 67.7836 27.0353 70.2162 25.6219C72.5603 24.2567 74.5808 23.6751 76.2199 23.886C77.8589 24.097 79.0279 25.0915 79.7024 26.8545C80.3983 28.6627 80.5295 31.2274 80.09 34.449C79.6505 37.6707 78.6647 41.3805 77.163 45.431C75.594 49.6197 73.737 53.6977 71.6049 57.6364C69.3923 61.7727 66.9203 65.7686 64.2034 69.6008C61.6548 73.233 58.8251 76.6649 55.7397 79.8655C52.892 82.7737 50.2152 84.9646 47.7857 86.3781C45.4385 87.7433 43.418 88.3249 41.782 88.114C40.146 87.903 38.974 86.9085 38.2995 85.1455C37.6005 83.3372 37.4723 80.7726 37.9118 77.5509V77.5479ZM37.6768 77.789C35.8455 91.1156 43.9277 92.1644 55.703 80.1277C67.4784 68.0909 78.5029 47.5375 80.322 34.211C82.1411 20.8844 74.0742 19.8356 62.3141 31.8723C50.554 43.909 39.5142 64.4625 37.6921 77.789H37.6768Z" stroke="white" stroke-opacity="0.1" stroke-width="2"/>
<path d="M35.8721 77.1832C36.6901 73.6481 38.0941 69.6489 40.0475 65.3303C42.0637 60.9043 44.3626 56.6092 46.9302 52.4708C49.5633 48.1908 52.4527 44.0698 55.5831 40.1298C58.4618 36.4582 61.6253 33.0132 65.0449 29.8259C68.1673 26.9659 71.0364 24.8835 73.5727 23.6388C76.0145 22.4333 78.0595 22.0566 79.6252 22.5147C81.191 22.9728 82.2135 24.2446 82.656 26.2939C83.1139 28.4035 82.9307 31.2845 82.1128 34.8166C81.2948 38.3487 79.8908 42.3508 77.9374 46.6695C75.9213 51.0961 73.6213 55.3913 71.0516 59.5289C68.4196 63.8089 65.5311 67.9299 62.4017 71.87C59.5163 75.5415 56.3467 78.9864 52.9216 82.1739C49.7992 85.0339 46.9302 87.1163 44.3969 88.361C41.9551 89.5665 39.9102 89.9432 38.3444 89.4851C36.7786 89.027 35.7561 87.7552 35.3136 85.7059C34.8557 83.5963 35.0358 80.7152 35.8568 77.1832H35.8721ZM35.6005 77.4182C32.2156 92.0317 39.9407 94.2949 52.8545 82.4632C65.7683 70.6314 78.9843 49.198 82.3691 34.5815C85.754 19.9651 78.0289 17.7048 65.1121 29.5366C52.1952 41.3684 38.9853 62.8018 35.6005 77.4182Z" stroke="white" stroke-opacity="0.1" stroke-width="2"/>
<path d="M33.9288 76.4963C35.3834 72.1272 37.2217 67.892 39.4227 63.8388C41.9069 59.2082 44.6701 54.7288 47.6972 50.4248C50.7502 46.0393 54.0593 41.8331 57.6077 37.8275C60.8231 34.1613 64.3245 30.7494 68.0797 27.6232C71.4646 24.8536 74.5077 22.9218 77.1234 21.873C79.6536 20.8604 81.6803 20.7158 83.1515 21.4391C84.6226 22.1623 85.4589 23.7174 85.642 26.0621C85.8313 28.4911 85.3063 31.6645 84.0824 35.4949C82.6289 39.8644 80.7906 44.0998 78.5884 48.1525C76.1161 52.7808 73.3642 57.2582 70.3475 61.5604C67.2936 65.9453 63.9846 70.1514 60.4371 74.1577C57.2216 77.8239 53.7202 81.2358 49.965 84.3621C46.5801 87.1316 43.5371 89.0634 40.9183 90.1122C38.3911 91.1248 36.3644 91.2695 34.8933 90.5462C33.4221 89.8229 32.5858 88.2678 32.4027 85.9232C32.2135 83.4941 32.7384 80.3207 33.9624 76.4903L33.9288 76.4963ZM33.6846 76.7163C28.621 92.5593 35.8669 96.1215 49.8612 84.6785C63.8555 73.2355 79.2813 51.118 84.3449 35.278C89.4084 19.438 82.1625 15.8728 68.1683 27.3158C54.174 38.7588 38.7116 60.8823 33.6572 76.7223L33.6846 76.7163Z" stroke="white" stroke-opacity="0.1" stroke-width="2"/>
<path d="M32.1332 75.4686C34.0572 70.8357 36.359 66.3648 39.0159 62.0998C44.9334 52.5126 51.9186 43.609 59.841 35.5552C63.3712 31.936 67.1906 28.6031 71.2623 25.5889C74.8913 22.9609 78.087 21.213 80.7607 20.3993C83.3459 19.6127 85.3389 19.7242 86.6789 20.7308C88.0188 21.7374 88.6475 23.5848 88.5407 26.2248C88.4339 28.9582 87.5396 32.4269 85.8853 36.5316C83.9613 41.1644 81.6595 45.6354 79.0026 49.9004C76.0563 54.6925 72.8329 59.3131 69.3485 63.7393C65.8744 68.1823 62.1446 72.4245 58.1775 76.445C54.6463 80.0643 50.8258 83.3971 46.7532 86.4113C43.1272 89.0393 39.9315 90.7872 37.2548 91.6009C34.6726 92.3875 32.6765 92.276 31.3396 91.2694C30.0028 90.2628 29.371 88.4154 29.4748 85.7754C29.5846 83.042 30.4789 79.5732 32.1332 75.4686V75.4686ZM31.828 75.6825C24.985 92.6647 31.6021 97.6193 46.6097 86.7488C61.6173 75.8784 79.3292 53.2968 86.1722 36.3176C93.0152 19.3385 86.3981 14.3809 71.3904 25.2513C56.3828 36.1217 38.671 58.7004 31.828 75.6825V75.6825Z" stroke="white" stroke-opacity="0.1" stroke-width="2"/>
<path d="M30.4916 74.0763C32.8993 69.2162 35.6787 64.5445 38.8058 60.1017C42.2253 55.1906 45.9212 50.4728 49.8761 45.9705C53.7608 41.5184 57.9035 37.2921 62.2832 33.313C66.6112 29.3952 70.7561 26.1826 74.6049 23.7415C78.4537 21.3004 81.7745 19.7845 84.4757 19.239C87.0853 18.7116 89.0082 19.1034 90.1924 20.4053C91.3767 21.7072 91.7643 23.856 91.3431 26.7853C90.9036 29.8201 89.6156 33.5661 87.5065 37.936C85.1011 42.7973 82.3216 47.4691 79.1923 51.9105C75.7748 56.8223 72.0799 61.5402 68.1251 66.0417C64.2403 70.4939 60.0977 74.7202 55.7179 78.6993C51.3899 82.6171 47.2451 85.8297 43.3963 88.2708C39.5474 90.7119 36.2267 92.2278 33.5255 92.7732C30.9159 93.3006 28.993 92.9089 27.8087 91.6069C26.6245 90.305 26.2369 88.1563 26.6581 85.2269C27.0945 82.1921 28.3856 78.4461 30.4916 74.0763V74.0763ZM30.1864 74.2782C21.4724 92.291 27.3143 98.7102 43.2314 88.6174C59.1486 78.5245 79.1099 55.7349 87.8239 37.722C96.5379 19.7091 90.696 13.29 74.7789 23.3828C58.8617 33.4757 38.8912 56.2653 30.1772 74.2782H30.1864Z" stroke="white" stroke-opacity="0.1" stroke-width="2"/>
<path d="M29.0795 72.3069C31.9792 67.2563 35.2486 62.4215 38.8617 57.8412C42.7504 52.8634 46.917 48.1034 51.3421 43.5834C55.6218 39.1742 60.1612 35.0181 64.9366 31.1368C69.6217 27.3607 74.0474 24.3289 78.0854 22.1259C82.1235 19.9228 85.545 18.6933 88.237 18.4461C90.8375 18.2111 92.6627 18.9102 93.6577 20.5226C94.6527 22.1349 94.7687 24.582 94.0056 27.7916C93.2121 31.1067 91.5028 35.1209 88.9268 39.6927C86.026 44.7427 82.7566 49.5774 79.1445 54.1585C75.2541 59.1348 71.0876 63.8947 66.6641 68.4163C62.3812 72.8265 57.8377 76.9826 53.0575 80.8628C48.3754 84.639 43.9497 87.6708 39.9086 89.8738C35.8676 92.0768 32.4552 93.3124 29.7601 93.5595C27.1597 93.7946 25.3344 93.0954 24.3394 91.4831C23.3444 89.8708 23.2254 87.4236 23.9915 84.2141C24.7851 80.899 26.4943 76.8847 29.0703 72.313L29.0795 72.3069ZM28.7376 72.4938C18.0916 91.4108 22.9751 99.3458 39.698 90.2415C56.421 81.1371 78.5982 58.4258 89.2564 39.5119C99.9147 20.5979 95.0068 12.6538 78.2991 21.7582C61.5914 30.8626 39.3989 53.5738 28.7376 72.4878V72.4938Z" stroke="white" stroke-opacity="0.1" stroke-width="2"/>
<path d="M27.9062 70.1372C31.302 64.9449 35.0667 59.9971 39.1718 55.3309C43.5236 50.3405 48.1549 45.5945 53.044 41.1153C57.7049 36.8109 62.6281 32.7922 67.7861 29.0816C72.8039 25.5013 77.4737 22.7197 81.6735 20.812C85.8733 18.9043 89.3437 17.9822 91.996 18.0726C94.5568 18.163 96.2447 19.1876 97.0199 21.1224C97.7952 23.0572 97.6121 25.7967 96.4766 29.2745C95.3046 32.8909 93.1559 37.1101 90.0945 41.8627C86.6995 47.0548 82.9359 52.0027 78.8319 56.669C74.482 61.6601 69.8517 66.4062 64.9628 70.8846C60.3016 75.1898 55.3773 79.2085 50.2177 82.9183C45.2029 86.4986 40.53 89.2802 36.3333 91.1879C32.1365 93.0956 28.6631 94.0178 26.0108 93.9274C23.45 93.8369 21.7591 92.8123 20.9869 90.8775C20.2147 88.9427 20.3947 86.2032 21.5302 82.7254C22.7022 79.1241 24.8509 74.8898 27.9123 70.1372H27.9062ZM27.5674 70.2939C14.9069 89.9432 18.716 99.4726 36.083 91.5767C53.4499 83.6808 77.7789 61.3553 90.4303 41.706C103.082 22.0567 99.2816 12.5274 81.9147 20.4233C64.5477 28.3191 40.2218 50.6446 27.5552 70.2939H27.5674Z" stroke="white" stroke-opacity="0.1" stroke-width="2"/>
<path d="M27.029 67.5635C30.9223 62.279 35.1854 57.2701 39.7871 52.5734C44.5863 47.632 49.6673 42.9652 55.0053 38.5959C60.0189 34.4561 65.2969 30.639 70.8065 27.1679C76.1204 23.8529 81.0039 21.3846 85.3197 19.8235C89.6355 18.2624 93.1272 17.7139 95.6971 18.166C98.1786 18.609 99.6985 19.9742 100.217 22.2435C100.736 24.5129 100.217 27.5386 98.6913 31.2635C97.1133 35.1211 94.5129 39.5542 90.9601 44.4364C87.0718 49.7196 82.8148 54.7285 78.2203 59.4265C73.4204 64.3672 68.3394 69.0339 63.0021 73.4041C57.9885 77.5438 52.7105 81.361 47.2009 84.832C41.887 88.1471 37.0035 90.6153 32.6878 92.1764C28.372 93.7375 24.8803 94.286 22.3103 93.8339C19.8289 93.3909 18.3058 92.0257 17.787 89.7564C17.2681 87.4871 17.787 84.4613 19.3131 80.7364C20.891 76.8789 23.4915 72.4457 27.0443 67.5635H27.029ZM26.6902 67.6901C11.9939 87.8819 14.5516 99.0326 32.4008 92.5772C50.25 86.1219 76.6393 64.5107 91.3386 44.3098C106.038 24.109 103.477 12.9674 85.6249 19.4227C67.7727 25.8781 41.3743 47.4893 26.6749 67.6901H26.6902Z" stroke="white" stroke-opacity="0.1" stroke-width="2"/>
<path d="M26.4922 64.5889C30.8743 59.2697 35.628 54.2597 40.7184 49.5958C45.9448 44.7695 51.4544 40.2512 57.2186 36.0643C62.5534 32.1503 68.153 28.601 73.9781 25.441C79.5484 22.4665 84.5997 20.372 88.9888 19.2147C93.3778 18.0574 96.839 17.9068 99.2808 18.7807C101.64 19.6155 102.943 21.3484 103.185 23.9402C103.426 26.532 102.553 29.847 100.621 33.798C98.6184 37.8846 95.551 42.4744 91.5007 47.441C87.1186 52.7602 82.3649 57.7702 77.2745 62.4341C72.0475 67.2597 66.5379 71.778 60.7743 75.9656C55.4454 79.8684 49.8531 83.4077 44.0361 86.5588C38.4629 89.5333 33.4145 91.6278 29.0255 92.7851C24.6364 93.9423 21.1447 94.093 18.703 93.2341C16.3436 92.3993 15.0404 90.6664 14.7962 88.0747C14.552 85.4829 15.431 82.1678 17.3631 78.2169C19.3745 74.1303 22.4419 69.5404 26.4922 64.5889ZM26.132 64.6823C9.38465 85.2237 10.5262 97.9958 28.6775 93.21C46.8289 88.4243 75.1196 67.8949 91.8578 47.3476C108.596 26.8002 107.464 14.0342 89.3123 18.8199C71.1609 23.6057 42.8672 44.135 26.132 64.6823V64.6823Z" stroke="white" stroke-opacity="0.1" stroke-width="2"/>
<path d="M26.3324 61.1656C31.1917 55.8737 36.4251 50.9289 41.9931 46.3683C47.6189 41.7253 53.5312 37.4315 59.6958 33.5119C65.3074 29.8986 71.1827 26.7013 77.2734 23.9464C83.0542 21.3818 88.2216 19.7272 92.632 19.0311C97.0424 18.3349 100.43 18.6333 102.704 19.9352C104.902 21.1829 105.97 23.2955 105.882 26.2187C105.793 29.142 104.554 32.7193 102.191 36.8631C99.7497 41.1516 96.2092 45.856 91.6675 50.8467C86.8093 56.1386 81.5769 61.0834 76.0098 65.6439C70.3834 70.2863 64.4712 74.58 58.3071 78.5004C52.6906 82.1144 46.8102 85.3116 40.7143 88.0659C34.9334 90.6305 29.7661 92.285 25.3557 92.9812C20.9453 93.6774 17.5543 93.379 15.2834 92.0771C13.0889 90.8294 12.0207 88.7168 12.1092 85.7935C12.1977 82.8702 13.443 79.293 15.8023 75.1371C18.2441 70.8486 21.7877 66.1442 26.3263 61.1535L26.3324 61.1656ZM25.9661 61.2108C7.18599 81.8546 6.73731 96.2511 24.9925 93.3669C43.2476 90.4828 73.2506 71.4091 92.0307 50.7653C110.811 30.1215 111.26 15.725 93.0044 18.6092C74.7492 21.4933 44.7462 40.579 25.9661 61.2228V61.2108Z" stroke="white" stroke-opacity="0.1" stroke-width="2"/>
<path d="M26.5847 57.3563C31.8975 52.1575 37.5888 47.3499 43.6128 42.9719C49.5966 38.5852 55.8672 34.5934 62.3838 31.0226C68.2389 27.7711 74.3523 24.9953 80.6633 22.7229C86.5999 20.6434 91.8283 19.4982 96.2051 19.3174C100.582 19.1366 103.836 19.9201 105.899 21.6771C107.886 23.3648 108.67 25.8662 108.231 29.1119C107.791 32.3577 106.149 36.1821 103.347 40.4826C100.451 44.9368 96.434 49.7045 91.4132 54.647C86.099 59.8443 80.4078 64.6519 74.385 69.0314C68.4008 73.4174 62.1302 77.4092 55.614 80.9807C49.7588 84.2285 43.6454 87.0002 37.3345 89.2683C31.401 91.3478 26.1726 92.493 21.7958 92.6738C17.419 92.8546 14.1653 92.0711 12.102 90.3141C10.1151 88.6264 9.33065 86.1251 9.77017 82.8793C10.2097 79.6335 11.8518 75.8092 14.6537 71.5086C17.5502 67.0544 21.5638 62.2867 26.5877 57.3442L26.5847 57.3563ZM26.2276 57.3442C5.45132 77.8494 3.28427 93.8401 21.3868 93.0897C39.4893 92.3393 71.0001 75.1371 91.7764 54.644C112.553 34.1508 114.717 18.1782 96.6141 18.9136C78.5116 19.6489 46.9977 36.8631 26.2245 57.3563L26.2276 57.3442Z" stroke="white" stroke-opacity="0.1" stroke-width="2"/>
<path d="M27.2901 53.1159C33.0313 48.0824 39.1535 43.4893 45.6032 39.3764C51.9063 35.3225 58.4944 31.718 65.3173 28.5904C71.9619 25.5586 78.283 23.2803 84.1066 21.8186C90.1316 20.3118 95.36 19.7301 99.6391 20.1219C103.918 20.5137 106.998 21.8367 108.796 24.0638C110.526 26.2126 110.987 29.1088 110.166 32.6679C109.345 36.2271 107.285 40.2745 104.043 44.6926C100.686 49.2644 96.2024 54.0351 90.7145 58.8841C84.9739 63.9183 78.8516 68.5115 72.4014 72.6236C66.0998 76.6781 59.5126 80.2826 52.6904 83.4096C46.0458 86.4414 39.7247 88.7197 33.9011 90.1814C27.873 91.6882 22.6477 92.2698 18.3655 91.8781C14.0832 91.4863 11.0097 90.1633 9.2089 87.9361C7.48136 85.7874 7.02048 82.8912 7.84152 79.332C8.66256 75.7729 10.7228 71.7255 13.9642 67.3074C17.3216 62.7356 21.8053 57.9649 27.2901 53.1159V53.1159ZM26.9421 53.0827C4.24604 73.1178 0.201889 90.6666 17.9076 92.2759C35.6134 93.8852 68.3603 78.9523 91.0533 58.9172C113.746 38.8822 117.794 21.3334 100.088 19.7392C82.3821 18.1449 49.6321 33.0477 26.9421 53.0827Z" stroke="white" stroke-opacity="0.1" stroke-width="2"/>
<path d="M28.4956 48.4959C40.5701 39.0937 54.0506 31.6007 68.4549 26.2849C75.2857 23.8046 81.7136 22.117 87.5555 21.2731C93.6049 20.3992 98.7601 20.4685 102.877 21.4811C106.995 22.4937 109.83 24.3893 111.305 27.1137C112.724 29.7477 112.831 33.0386 111.595 36.8961C110.358 40.7537 107.871 44.9909 104.181 49.4783C100.362 54.1255 95.421 58.8419 89.4936 63.5041C83.3663 68.2969 76.855 72.5904 70.0237 76.3424C63.4514 79.9905 56.5996 83.1243 49.5313 85.715C42.6975 88.1953 36.2726 89.883 30.4277 90.7268C24.3813 91.6008 19.2261 91.5315 15.1057 90.5189C10.9852 89.5063 8.15585 87.6107 6.68165 84.8863C5.25933 82.2523 5.15555 78.9613 6.39169 75.1038C7.62783 71.2463 10.1215 67 13.8207 62.5216C17.639 57.8745 22.5805 53.1581 28.5048 48.4959H28.4956ZM28.1691 48.4145C3.65998 67.7022 -2.39862 86.7096 14.6357 90.9076C31.6699 95.1057 65.3447 82.8671 89.8508 63.5915C114.357 44.3159 120.415 25.2964 103.384 21.0983C86.3529 16.9003 52.6659 29.1389 28.166 48.4145H28.1691Z" stroke="white" stroke-opacity="0.1" stroke-width="2"/>
<path d="M30.2253 43.5082C36.7029 39.0261 43.5661 35.1134 50.736 31.8151C57.516 28.6559 64.5629 26.0885 71.7961 24.1422C78.7429 22.2978 85.2013 21.2852 90.9882 21.1285C96.9797 20.9718 101.976 21.7312 105.874 23.431C109.771 25.1307 112.283 27.614 113.388 30.8537C114.453 33.9819 114.151 37.6647 112.488 41.8025C110.824 45.9403 107.885 50.3222 103.752 54.8307C99.4794 59.4959 94.0954 64.0888 87.7651 68.4857C81.2867 72.9666 74.4236 76.8792 67.2544 80.1789C60.4742 83.3376 53.4274 85.905 46.1943 87.8518C39.2475 89.6962 32.7891 90.7088 27.0022 90.8655C21.0077 91.0222 16.0143 90.2477 12.1166 88.563C8.219 86.8783 5.70705 84.38 4.59911 81.1403C3.53389 78.012 3.83911 74.3293 5.51476 70.1915C7.19042 66.0537 10.1144 61.6718 14.2501 57.1633C18.5232 52.4981 23.9072 47.9052 30.2375 43.5082H30.2253ZM29.9323 43.3696C3.75365 61.5512 -4.44453 81.9449 11.6191 88.9216C27.6828 95.8983 61.9345 86.812 88.1131 68.6304C114.292 50.4488 122.49 30.0551 106.426 23.0784C90.3625 16.1017 56.1109 25.188 29.9292 43.3696H29.9323Z" stroke="white" stroke-opacity="0.1" stroke-width="2"/>
<path d="M32.511 38.1769C39.2849 34.0904 46.4393 30.6531 53.8763 27.9123C60.813 25.3141 67.9917 23.3962 75.3088 22.1862C82.2922 21.0712 88.6987 20.815 94.3483 21.4268C100.196 22.0777 104.985 23.6177 108.559 26.0136C112.133 28.4095 114.294 31.5468 114.969 35.3049C115.628 38.9213 114.887 43.0049 112.768 47.3958C110.65 51.7868 107.274 56.2742 102.696 60.7435C97.9682 65.3665 92.1782 69.7635 85.4878 73.8109C78.7139 77.8974 71.5595 81.3346 64.1225 84.0755C57.1852 86.6682 50.0065 88.581 42.69 89.7865C35.7066 90.9015 29.3001 91.1577 23.6474 90.5459C17.7872 89.9221 13.0136 88.3972 9.43644 85.9862C5.85927 83.5752 3.70443 80.4531 3.02684 76.695C2.37062 73.0785 3.10925 68.995 5.23052 64.604C7.35179 60.2131 10.7397 55.7257 15.3027 51.2564C20.0336 46.6333 25.8236 42.2364 32.514 38.189L32.511 38.1769ZM32.2088 37.9931C4.54072 54.7191 -5.90386 76.3424 8.88704 86.3057C23.6779 96.2689 58.1066 90.7569 85.7808 74.0188C113.455 57.2807 123.9 35.6575 109.109 25.6942C94.3178 15.7309 59.9074 21.2429 32.218 37.981L32.2088 37.9931Z" stroke="white" stroke-opacity="0.1" stroke-width="2"/>
<path d="M35.3787 32.5443C42.3977 28.9282 49.7858 26.0581 57.4186 23.9824C64.4467 22.0354 71.6735 20.8719 78.964 20.5136C85.8955 20.2122 92.1586 20.7939 97.5823 22.2435C103.198 23.7503 107.655 26.104 110.853 29.2714C114.052 32.4388 115.764 36.2029 115.972 40.5035C116.173 44.6413 114.958 49.0774 112.364 53.6884C109.77 58.2994 105.93 62.847 100.946 67.2109C95.7846 71.7314 89.6161 75.8481 82.6327 79.4555C75.6137 83.0717 68.2257 85.9417 60.5929 88.0174C53.5648 89.9644 46.3379 91.1279 39.0475 91.4862C32.1159 91.7876 25.8498 91.2059 20.4291 89.7563C14.8131 88.2495 10.3569 85.8958 7.16124 82.7284C3.9656 79.561 2.21975 75.7818 2.02441 71.4963C1.82297 67.3585 3.03774 62.9224 5.62904 58.3114C8.22035 53.7005 12.0661 49.1528 17.0503 44.789C22.2116 40.2684 28.377 36.1517 35.3787 32.5443V32.5443ZM35.1162 32.2821C6.16012 47.209 -6.63159 69.9262 6.56912 83.0237C19.7698 96.1213 53.9238 94.6415 82.8738 79.7087C111.824 64.7758 124.612 42.0736 111.427 28.9761C98.2416 15.8786 64.0723 17.3583 35.1223 32.2912L35.1162 32.2821Z" stroke="white" stroke-opacity="0.1" stroke-width="2"/>
<path d="M38.8471 26.6465C46.0503 23.5829 53.5977 21.3784 61.3296 20.0797C68.3876 18.8586 75.5753 18.5375 82.7162 19.1243C89.4951 19.727 95.5354 21.2339 100.626 23.5695C105.907 25.9986 109.966 29.2413 112.686 33.2133C115.379 37.0837 116.657 41.7448 116.309 46.4284C116.003 51.0725 114.285 55.8553 111.205 60.644C108.126 65.4328 103.834 69.9865 98.4533 74.1816C92.8861 78.5243 86.385 82.2854 79.1391 85.3624C71.9358 88.4255 64.3884 90.63 56.6567 91.9292C49.5986 93.1502 42.4109 93.4713 35.27 92.8846C28.488 92.2818 22.4508 90.775 17.3597 88.4394C12.0764 86.0103 8.02003 82.7676 5.30053 78.7955C2.60757 74.925 1.33175 70.2635 1.68368 65.5805C1.9889 60.9364 3.70728 56.1506 6.79915 51.3648C9.89102 46.5791 14.1702 42.0224 19.5481 37.8273C25.4593 33.2846 31.9474 29.5257 38.8471 26.6465V26.6465ZM38.6304 26.315C8.64878 39.0509 -6.53891 62.6572 4.71145 79.0547C15.9618 95.4522 49.3833 98.4147 79.368 85.6848C109.353 72.955 124.54 49.3487 113.287 32.9451C102.034 16.5416 68.6121 13.5912 38.6304 26.315Z" stroke="white" stroke-opacity="0.1" stroke-width="2"/>
<path d="M42.9514 20.5409C50.2774 18.1067 57.9043 16.666 65.623 16.2584C72.6502 15.8509 79.6999 16.4663 86.5458 18.0847C93.0714 19.6729 98.7545 22.1532 103.437 25.4622C108.283 28.8858 111.839 33.0507 114.006 37.8365C116.171 42.6096 116.842 47.9125 115.932 53.0647C115.075 58.2031 112.825 63.3113 109.245 68.2296C105.665 73.148 100.943 77.6535 95.2048 81.6014C89 85.8182 82.2166 89.1377 75.0604 91.4592C67.7343 93.8934 60.1074 95.3341 52.3887 95.7417C45.3605 96.149 38.3098 95.5337 31.4629 93.9154C24.9374 92.3272 19.2542 89.8469 14.5752 86.5378C9.71914 83.1143 6.16029 78.9494 3.99323 74.1636C1.82846 69.3905 1.15881 64.0872 2.07035 58.9354C2.92802 53.797 5.17748 48.6888 8.75465 43.7705C12.3318 38.8521 17.0597 34.3466 22.7947 30.3987C28.9993 26.1814 35.7828 22.8619 42.9392 20.5409H42.9514ZM42.7591 20.1491C12.0571 30.2902 -5.57843 54.5655 3.38585 74.3655C12.3501 94.1655 44.5141 101.995 75.2283 91.845C105.942 81.6948 123.581 57.4285 114.617 37.6285C105.652 17.8285 73.4885 9.99896 42.7713 20.1491H42.7591Z" stroke="white" stroke-opacity="0.1" stroke-width="2"/>
<path d="M47.6691 14.2843C55.0629 12.5639 62.6822 11.9864 70.2553 12.5725C77.1967 13.0827 84.0041 14.7275 90.3998 17.4397C96.556 20.0917 101.787 23.6298 105.941 27.9514C110.122 32.2197 113.141 37.4622 114.72 43.1917C116.25 48.8392 116.26 54.7833 114.75 60.4361C113.294 66.0506 110.477 71.4361 106.408 76.4448C102.34 81.4536 97.1909 85.8325 91.1262 89.458C84.6775 93.28 77.6572 96.071 70.3255 97.7276C62.9317 99.448 55.3124 100.025 47.7393 99.4394C40.7979 98.9292 33.9905 97.2844 27.5949 94.5722C21.4386 91.9202 16.2072 88.3821 12.0531 84.0605C7.7587 79.5761 4.80113 74.4498 3.27198 68.8081C1.74335 63.1604 1.73283 57.2167 3.24146 51.5638C4.7004 45.9492 7.51452 40.5638 11.5831 35.555C15.6517 30.5462 20.8037 26.1794 26.8684 22.5539C33.3169 18.7314 40.3372 15.9404 47.6691 14.2843V14.2843ZM47.544 13.8232C16.4269 20.9808 -3.6687 45.666 2.65544 68.9618C8.97957 92.2577 39.3336 105.334 70.4506 98.1766C101.568 91.0191 121.663 66.3339 115.339 43.026C109.015 19.718 78.661 6.66569 47.544 13.8232V13.8232Z" stroke="white" stroke-opacity="0.1" stroke-width="2"/>
<path d="M53.0258 7.94674C60.4285 7.02717 67.9378 7.41495 75.203 9.09195C81.9901 10.6362 88.4336 13.3939 94.2151 17.2289C99.7306 20.8654 104.442 25.5681 108.066 31.0528C111.675 36.5292 113.97 42.7472 114.775 49.2325C115.58 55.7177 114.874 62.2989 112.711 68.4738C110.54 74.6623 107.12 80.3514 102.657 85.1969C97.9912 90.3034 92.4163 94.522 86.2092 97.6434C72.8117 104.381 57.4392 106.245 42.7888 102.908C36.0026 101.364 29.5601 98.6064 23.7797 94.7714C18.2642 91.1349 13.5524 86.4322 9.92892 80.9475C6.31835 75.4718 4.02214 69.2542 3.21548 62.7689C2.40881 56.2836 3.11301 49.7021 5.27433 43.5265C7.45099 37.3365 10.8776 31.6473 15.3466 26.8034C20.0128 21.6969 25.5877 17.4783 31.7948 14.3569C38.4341 10.9941 45.6261 8.8236 53.035 7.94674H53.0258ZM52.9678 7.41633C21.8355 11.1895 -0.720163 36.0043 2.60672 62.8382C5.93361 89.6722 33.8978 108.36 65.0423 104.584C96.1868 100.808 118.73 75.996 115.403 49.1621C112.077 22.3281 84.1032 3.64017 52.9587 7.41633H52.9678Z" stroke="white" stroke-opacity="0.1" stroke-width="2"/>
<path d="M58.9915 1.60274C71.7015 1.6107 84.018 5.95645 93.8546 13.9038C103.691 21.8512 110.443 32.9116 112.967 45.2115C115.49 57.5113 113.63 70.2943 107.702 81.3952C101.773 92.496 92.1409 101.232 80.4362 106.124C66.9947 111.62 51.8974 111.645 38.4374 106.193C24.9774 100.741 14.2469 90.2551 8.58652 77.0219C2.92614 63.7888 2.79517 48.8824 8.22218 35.5542C13.6492 22.2261 24.1938 11.5577 37.556 5.87616C44.3374 3.04289 51.628 1.58943 58.9915 1.60274V1.60274ZM58.9915 1C47.9746 1 37.2051 4.22569 28.0449 10.2692C18.8847 16.3126 11.7452 24.9025 7.52918 34.9524C3.3132 45.0023 2.2101 56.061 4.35939 66.73C6.50869 77.3989 11.8138 87.199 19.604 94.8909C27.3941 102.583 37.3193 107.821 48.1245 109.943C58.9297 112.065 70.1296 110.976 80.3079 106.813C90.4862 102.651 99.1857 95.601 105.306 86.5563C111.427 77.5116 114.694 66.878 114.694 56C114.694 48.7773 113.253 41.6253 110.454 34.9524C107.655 28.2795 103.552 22.2163 98.3791 17.1091C93.2067 12.0019 87.0661 7.95063 80.3079 5.18662C73.5498 2.42262 66.3065 1 58.9915 1V1Z" stroke="white" stroke-opacity="0.1" stroke-width="2"/>
</svg>
